<svg xmlns="http://www.w3.org/2000/svg" viewBox="0 0 538 249"><defs><style>.cls-1{fill:#fff;}</style></defs><g id="Layer_3" data-name="Layer 3"><path class="cls-1" d="M124,73.46c8.35-5.66,14.17-5.91,18-5,6.66,1.57,8.95,7,15,7,5.45,0,8.78-4.35,12-7,12.09-9.93,29.22-1.26,69,3,12.58,1.35,21.89,1.66,32,2a489.66,489.66,0,0,0,52-1h83l12,5h5v38l6,39v26l-1,13-11,4H331l-55-3-62-1-30-3H150l-16,3-10-6v-114Z"/><path d="M287.11,192.23c.12-7.54,4.07-14,10.19-15.71,2.41-.65,6.05-.11,7.8,1.42,1.09,1,.12,4.92-.73,7.24-.65,1.77-2.56,3.08-4.37,5.13,8.53.68,16.5,1.46,24.49,1.93,25.42,1.49,50.85,3,76.29,4.17a51.65,51.65,0,0,0,14.12-1.69c9.23-2.19,11.21-5.15,10.41-15q-1.89-23.07-4.19-46.1c-.15-1.5-1.45-3-2.56-4.25-2.47-2.67-6.16-4.72-7.5-7.83-1.55-3.55-1.09-8-1.5-12l10.27-.48c0-6.46.17-14-.07-21.51-.14-4.42-1.94-8.12-7-8.59-15.81-1.47-31.61-3.71-47.44-4-21.65-.4-43.33.67-65,1.22-13.44.34-26.87,1.07-40.31,1.27a112.19,112.19,0,0,1-71.62-23.65c-12,8.22-17,9.2-18.84,3-2.41-8.17,6.71-7.22,11.42-11.64-10.43-2.44-17.69-8.21-21.56-17.71,8.3-2,16.86,3.42,20.49,10.6,2.54,5,7.13,9.51,11.83,12.77,5.43,3.76,12,5.91,19.86,9.61C207,52.25,206.82,44.22,198,40.82c-3.48-1.35-6.13-6.57-7.74-10.59-1.76-4.36,1.87-7.37,6.45-5.95,6.72,2.09,13.6,6.58,9.85,16a3.32,3.32,0,0,0-.06,2.53c3.71,6.22,7.18,12.64,11.53,18.39,1.72,2.28,5.48,3,8.53,4.57-.52-6.44-.94-11.68-1.45-18.2,10.74,4.15,13.9,10.85,14.13,19.55,16.6,4.43,33.2,3.13,50,2.53,26.89-1,53.86.21,80.79.42,11.55.09,23.11,0,34.07,0-4.14-8.45-3.68-11.33,1.86-13.9.68-5.35,1.27-10,1.86-14.58l3.2-.84L423.6,60.25a6.2,6.2,0,0,1,1.69-1.2c2.73-1,5.52-1.9,8.29-2.84,0,3.63.07,7.26.08,10.88a.77.77,0,0,1-.38.55c-8.87,5.64-7.3,13.85-6.81,22.71.94,17,.27,34.05.27,51.08l2,.11c3.34-3.84,6.4-8,10.17-11.36,1.7-1.5,4.84-1.37,7.32-2-.06,2,.21,4.19-.24,6.15-2.26,9.85-6.35,18.48-17,23.4.88,5.7,1.7,11.73,2.76,17.71,3,17.17-2.93,26.93-22.14,27.67-14.22.55-28.54-1.44-42.82-2.25-2.5-.14-5,0-5.88,0-2.23,3.33-3.49,7.34-5.62,7.88-3,.75-8.42,0-9.59-2-5.32-9.12-13.63-6.71-21.22-7.45-.54,2.88-.58,5.39-1.5,7.54-3.12,7.33-9.71,8.58-13,1.65-4.49-9.44-11.44-9.77-19.9-9.25-12,.75-24.07,1.73-36.06,1.27-16-.61-32-2.92-48-3.75-21.42-1.11-42.88-1.51-64.32-2.22l-.51,2.41c2,.79,4.1,1.6,6.16,2.36,2.71,1,6.58,1.21,7.9,3.15,2.38,3.5,3.66,8,4.39,12.21.15.86-4.49,3.91-6.34,3.47-4.14-1-8-3.29-11.75-5.53-1-.6-1-2.87-1-3.19-3.87-.31-8.74.6-9.91-1.08-1.9-2.74-1.39-7.16-2.15-12.71-5.77-2.88-7.91-8.84-6.09-17.9,1.43-7.1-.37-14.85-.75-22.81-5.1,1.23-9.5,8.65-13.64.58-3.76-7.34-2.39-10,7.44-15.12-1.17-3.12-2-6.47-3.66-9.4a8,8,0,0,0-4.69-3.52c-10.53-2.28-12.93-5.6-11-16.28C87.28,105.28,81.1,98,84.77,85.41c12,4,15.63,13.66,18.44,25.61l6-20.78c7.78,6.7,7,15,4.47,20.31-4.55,9.68,1.35,14.92,6.15,21.56.49-4,1.43-8,1.36-11.91q-.32-18.8-1.29-37.56c-.5-9.65,2.92-14.29,13.39-16.81.12-.72,0-1.79.43-2.4,1.7-2.29,3.61-4.42,5.44-6.62,2.19,1.84,5.4,3.25,6.39,5.6,2.69,6.37,11.69,9.5,17.45,5.39,8.5-6.06,14-5.4,21.62,1.74,2.09,1.95,5.78,2.1,8.11,3.88s4.19,4.72,6.24,7.14c-3.46,1.2-6.88,3.16-10.38,3.32A9.14,9.14,0,0,1,181.66,80c-4.06-7-10.26-5-15.16-5.1-1.49,2.76-2.17,5.9-3.93,6.73s-5.83.2-6.8-1.22c-6.23-9.11-14.9-5.28-22.9-4.94-1.77.08-3.5.78-6.21,1.43.52,5.87,1.38,11.67,1.49,17.47.24,12.34-.1,24.7.12,37,.3,16.2.89,32.4,1.38,48.6.19,6.21,4.32,8.26,9.6,8.14,8.84-.2,17.78-.14,26.47-1.53,15.85-2.52,31.13.22,46.61,2.85a203.16,203.16,0,0,0,28.42,2.62C256,192.54,271.33,192.23,287.11,192.23Zm157-58.41-3.42-2.2-12.52,20.61,3.29,2ZM412.24,46.56l-2,.77c-.43,8.46,2.73,15.39,8.27,21.3l2.56-1.08Q416.66,57.07,412.24,46.56ZM145.43,209.39l-.87,2.32,11.29,4.19c.24-9.93-1.55-12.1-8.59-11.91l4.26,7.65ZM89.57,90.71l-2.76,1.86c.49,7.09,5.4,11,10.51,14.85l2-1.32Zm221,107.14-2.67,2.92,8.49,8,3.86-5ZM114.4,143.26c-2.49,3.48-4.5,5.43-5.23,7.78-.27.86,3.41,4,3.76,3.81a19.59,19.59,0,0,0,5.85-5.65C119.13,148.65,116.71,146.32,114.4,143.26ZM192.71,29.8c3.14,3.36,6.27,6.73,10.5,11.27C204.61,31.35,202,28.6,192.71,29.8Zm96.84,158.46,2.24,2.25c4-3.07,11-3.31,8.7-12.57ZM421.44,71.05l3.12,1.86q4.2-6,8.42-12L430.16,59Q425.81,65,421.44,71.05Zm-13.5-12.81-2.08-.14c-.19,2.17-1.32,5-.37,6.38,1.75,2.6,4.71,4.38,7.16,6.51l1.14-1.36Zm14.15,67.5c-3.27-6.07-5.54-10.31-8.24-15.34C410.8,117.26,413,121.44,422.09,125.74ZM229.48,52.05c-.93,8.75.91,11.73,7.25,12.43C234.11,60,231.8,56,229.48,52.05ZM105.59,124.12l2.53-2.76-7.37-6.12c-.68,1-2.08,2.66-1.93,2.81C101,120.19,103.3,122.13,105.59,124.12Z"/><path class="cls-1" d="M444.15,133.82,431.5,154.25l-3.29-2,12.52-20.61Z"/><path class="cls-1" d="M412.24,46.56q4.41,10.5,8.83,21l-2.56,1.08c-5.54-5.91-8.7-12.84-8.27-21.3Z"/><path class="cls-1" d="M145.43,209.39l6.09,2.25L147.26,204c7-.19,8.83,2,8.59,11.91l-11.29-4.19Z"/><path class="cls-1" d="M89.57,90.71l9.74,15.39-2,1.32c-5.11-3.81-10-7.76-10.51-14.85Z"/><path class="cls-1" d="M310.56,197.85l9.68,5.92-3.86,5-8.49-8Z"/><path class="cls-1" d="M114.4,143.26c2.31,3.06,4.73,5.39,4.38,5.94a19.59,19.59,0,0,1-5.85,5.65c-.35.23-4-2.95-3.76-3.81C109.9,148.69,111.91,146.74,114.4,143.26Z"/><path class="cls-1" d="M192.71,29.8c9.29-1.2,11.9,1.55,10.5,11.27C199,36.53,195.85,33.16,192.71,29.8Z"/><path class="cls-1" d="M289.55,188.26l10.94-10.32c2.34,9.26-4.66,9.5-8.7,12.57Z"/><path class="cls-1" d="M421.44,71.05q4.37-6,8.72-12L433,61q-4.22,6-8.42,12Z"/><path class="cls-1" d="M407.94,58.24l5.85,11.39L412.65,71c-2.45-2.13-5.41-3.91-7.16-6.51-.95-1.41.18-4.21.37-6.38Z"/><path class="cls-1" d="M422.09,125.74c-9.09-4.3-11.29-8.48-8.24-15.34C416.55,115.43,418.82,119.67,422.09,125.74Z"/><path class="cls-1" d="M229.48,52.05c2.32,4,4.63,7.93,7.25,12.43C230.39,63.78,228.55,60.8,229.48,52.05Z"/><path class="cls-1" d="M105.59,124.12c-2.29-2-4.64-3.93-6.77-6.07-.15-.15,1.25-1.84,1.93-2.81l7.37,6.12Z"/></g></svg>