<svg xmlns="http://www.w3.org/2000/svg" viewBox="0 0 400 220"><defs><style>.cls-1{fill:#fff;}</style></defs><g id="Layer_3" data-name="Layer 3"><path d="M229.92,174.88c.63,7,1.23,13.65,1.83,20.34l-2.66,1.47L211,186c-6.68.87-9-1.17-10.76-12.67-8.84,0-17.78-.16-26.72,0-9.34.22-18.67.95-28,1.18q-31.72.79-63.45,1.29c-12.19.2-24.39.19-36.59.26-2.18,0-4.35,0-8,0,3.65,5,6.42,8.93,9.34,12.72a4.42,4.42,0,0,0,2.73,1.54c9.09.93,18.31,10.6,18.89,19.58.33,5-3.33,5.36-6.44,5.56-6.12.4-15.36-6.57-15.26-12.67.15-9.87-8.15-13.44-12.5-21.23-2.33,5.95-5.78,10.08-.65,15.46,1.55,1.62.83,6.52-.39,9.22-.63,1.4-6,2.53-6.82,1.6-2-2.12-3.06-5.51-3.43-8.52-.31-2.49.69-5.25,1.51-7.76,1.88-5.74-1.09-10-2.82-15.21-3-9-5.24-19.38-3.7-28.49C22,123.47,25.2,99.15,24,74.39c-.22-4.61-1.3-9.18-2-13.77a42.36,42.36,0,0,1-.8-5.88c-.1-11-.06-11-6-20.92-4.31-7.18-4.28-13.63.18-17.76,2-1.87,3.37-3,6.53-.33,7.6,6.48,10.62,14.42,10,24H144.8c-9.37-9.31-16-19.17-12.74-34.68l18.2,9.34,20.31-4.61c5.55,9.34,4.94,16-2.44,29.83,16.25,1.26,31.6,6.41,48.51,2C229.7,38.19,244,39,257.81,39.13c12.89.09,25.76,1.65,38.64,2.59,14.19,1,28.38,2.14,42.57,3.14,2.64.19,5.3,0,8.14,0,.83-4.48.88-8.88,2.53-12.56a24.43,24.43,0,0,1,7.6-9.54c1.9-1.36,6.54-1.28,8.28.16s2.78,5.77,2.07,8.23c-1.26,4.37-1.39,7.47,1.76,11.3,4.68,5.69,2.29,13-4.63,15.76-2.61,1-5.52,1.35-8.41,2V119.7c7.73-8.5,7.83-8.51,16.28-1.85.31-3.24.94-5.54.65-7.72-1.19-8.92,3.23-17,10.74-20,4.57-1.86,6.33-.21,6.59,4.1a56.15,56.15,0,0,1,0,8.7c-.27,2.83-1,5.62-1.53,8.43,6.73,2.93,7.33,6.3,1.24,10.92-2.67,2-6.66,4-9.69,3.54-8.73-1.27-13.19,4.37-16.11,10.2a111.21,111.21,0,0,0-9.08,26.15c-2,9.22-6.66,14-18.57,13.85-14.68-.12-29.35-1.19-44-1.38-14.88-.2-29.78.17-44.67.27C241.72,174.91,235.3,174.88,229.92,174.88Zm-204-9.21c6.31,0,10.54.05,14.77,0,37.81-.46,75.62-1.2,113.43-1.33,20.69-.07,41.38,1.16,62.08,1.28,38.83.22,77.66-.07,116.49.17,7.29,0,11.36-3.1,13.19-9.67a40.74,40.74,0,0,0,1.84-10.43c.18-28.15.15-56.29.17-84.43,0-3.49-.85-5.79-5.15-6.19-13-1.23-26-4-39.06-4.15-29.86-.29-59.73.81-89.6,1-10.8.08-21.7,1.73-32.38-2.41-4.39-1.7-9.62-1.61-14.48-1.65-12.93-.1-25.87.1-38.81.31-23.17.36-46.34.68-69.51,1.28-9.31.24-18.61,1.15-28.85,1.82.36,3.83.7,7.38,1,10.84l13.21-7.29c4,9.28,2.14,18-5.34,22.72-4,2.5-4.59,5.24-4.51,9.21.29,13.14-.55,26-3.82,39C27.47,138.27,27.43,151.57,25.91,165.67ZM155.9,38c1.46-11.93-8.57-24.07-20.45-26.46-1.59,8.72,4.36,20.07,11.16,22.34-1.11-2.9-2.39-6.25-3.66-9.6l1.28-.47Zm4.47.92c10-5.55,9.87-13.38,9.65-20.94,0-1.36-3.29-3.92-4.74-3.71-3.88.57-7.58,2.34-11.71,3.75l4.7,7.11,5.5-2.11C162.62,28.44,161.65,33,160.37,39Zm194,8.26,2.33.89c2.39-7,4.78-14,7.48-21.88C354.25,27.45,352.07,36.67,354.36,47.21ZM19.45,18.67c-4.08,6.9-.19,16.94,7,19.33C28.62,30.19,23.33,25.14,19.45,18.67Zm359.6,93.77c6.51-2.75,8.85-10.16,5.64-17.72C377.56,99,378.44,105.71,379.05,112.44ZM217.82,178.59l-2.19,1.49c2.49,3.28,4.78,6.76,7.63,9.68.55.57,4.82-1.36,4.78-1.52-1-4.05-2.27-8-3.52-12l-2.15.74q.8,3.59,1.6,7.17l-1.19.69C221.12,182.76,219.47,180.67,217.82,178.59Zm-154.13,32c-1.41-7-4.92-11.07-12.42-9.67C53.44,207.67,55.15,209.06,63.69,210.61Zm150.08-37.74c-3.24.61-6,.74-8.33,1.84-.61.29-.49,4.6.51,5.29,2,1.37,4.82,1.5,7.82,2.28ZM364.45,44.08c-2.91,3.67-5.37,6.78-8.18,10.31C366.32,54,368.63,50.92,364.45,44.08Zm-330.83,29L37,74.57l5.37-11.83-2.76-1.32Q36.6,67.24,33.62,73.06Z"/><path class="cls-1" d="M25.91,165.67c1.52-14.1,1.56-27.4,4.7-39.92,3.27-13,4.11-25.85,3.82-39-.08-4,.52-6.71,4.51-9.21,7.48-4.69,9.32-13.44,5.34-22.72L31.07,62.12c-.33-3.46-.67-7-1-10.84,10.24-.67,19.54-1.58,28.85-1.82,23.17-.6,46.34-.92,69.51-1.28,12.94-.21,25.88-.41,38.81-.31,4.86,0,10.09,0,14.48,1.65,10.68,4.14,21.58,2.49,32.38,2.41,29.87-.21,59.74-1.31,89.6-1,13,.12,26,2.92,39.06,4.15,4.3.4,5.16,2.7,5.15,6.19,0,28.14,0,56.28-.17,84.43a40.74,40.74,0,0,1-1.84,10.43c-1.83,6.57-5.9,9.71-13.19,9.67-38.83-.24-77.66.05-116.49-.17-20.7-.12-41.39-1.35-62.08-1.28-37.81.13-75.62.87-113.43,1.33C36.45,165.72,32.22,165.67,25.91,165.67Z"/><path class="cls-1" d="M155.9,38,144.23,23.84l-1.28.47c1.27,3.35,2.55,6.7,3.66,9.6-6.8-2.27-12.75-13.62-11.16-22.34C147.33,14,157.36,26.1,155.9,38Z"/><path class="cls-1" d="M160.37,39c1.28-6,2.25-10.51,3.4-15.9l-5.5,2.11-4.7-7.11c4.13-1.41,7.83-3.18,11.71-3.75,1.45-.21,4.7,2.35,4.74,3.71C170.24,25.57,170.37,33.4,160.37,39Z"/><path class="cls-1" d="M354.36,47.21c-2.29-10.54-.11-19.76,9.81-21-2.7,7.88-5.09,14.88-7.48,21.88Z"/><path class="cls-1" d="M19.45,18.67c3.88,6.47,9.17,11.52,7,19.33C19.26,35.61,15.37,25.57,19.45,18.67Z"/><path class="cls-1" d="M379.05,112.44c-.61-6.73-1.49-13.47,5.64-17.72C387.9,102.28,385.56,109.69,379.05,112.44Z"/><path class="cls-1" d="M217.82,178.59c1.65,2.08,3.3,4.17,5,6.25l1.19-.69q-.81-3.59-1.6-7.17l2.15-.74c1.25,4,2.56,7.95,3.52,12,0,.16-4.23,2.09-4.78,1.52-2.85-2.92-5.14-6.4-7.63-9.68Z"/><path class="cls-1" d="M63.69,210.61c-8.54-1.55-10.25-2.94-12.42-9.67C58.77,199.54,62.28,203.57,63.69,210.61Z"/><path class="cls-1" d="M213.77,172.87v9.41c-3-.78-5.84-.91-7.82-2.28-1-.69-1.12-5-.51-5.29C207.75,173.61,210.53,173.48,213.77,172.87Z"/><path class="cls-1" d="M364.45,44.08c4.18,6.84,1.87,9.88-8.18,10.31C359.08,50.86,361.54,47.75,364.45,44.08Z"/><path class="cls-1" d="M33.62,73.06q3-5.82,6-11.64l2.76,1.32L37,74.57Z"/></g></svg>