<svg xmlns="http://www.w3.org/2000/svg" viewBox="0 0 538 249"><defs><style>.cls-1{fill:#fff;}</style></defs><g id="Layer_3" data-name="Layer 3"><path d="M386.62,196.6c0,4.83.45,9.1-.11,13.23-.64,4.64-2.31,8.78-8.41,9-1.62.05-3.53,1.92-4.68,3.43-1.42,1.85-2.18,4.2-4.34,8.61-5.08-7.56-9-13.47-13-19.33-.61-.9-1.47-2.25-2.26-2.28-9.27-.4-9.3-6.64-8.32-13.92-6.93,0-13.51.14-20.08,0-35.56-.88-71.11-2.05-106.67-2.69-22.27-.39-44.56-.48-66.81.17-11.73.34-23.42,2.46-35.1,4-5.1.65-7.71-1.58-8.45-6.39-1.86-12-4.93-24.06-5.22-36.14-.52-21.89.62-43.82,1.06-65.74,0-1.57,0-3.15,0-5.15a25.9,25.9,0,0,0-4.75-.44c-14.76,1.39-23.33-14-21-27.66.69-4.14,3.39-5.92,7.29-3.73,3.43,1.93,6.48,4.41,9.94.19a2.08,2.08,0,0,1,1.94-.31c4.22,2.15,8.19,5.73,12.6,6.35,7.28,1,6.48,6.35,7.54,10,15.81,0,31.41,0,47,0,14.07,0,14.86-.17,26.78-8.73-10.27-11.69-10.4-19.55.65-24.73l6.45,17.62c4.67-3.79,7.71-8.43,5.21-15.76-2.73-8,0-16,5.94-18.13,1.42-.52,4.63.71,5.38,2.06A18.26,18.26,0,0,1,211,42.28c-1.43,1.22-3.45,1.75-5.2,2.59l1.9,2.19,8.35-1.8c.93,6.33-5.26,14-11.42,12.52-7.62-1.8-8.09,4-11.66,7.54l120.94,2.2c-2-2.77-6.39-6.61-7.8-11.34-1.28-4.31.64-9.57,1.23-15.12,14,7,23.93,18.52,20.27,28.18l70.57,3.3c1.4-3,2.65-6,4.24-8.87a17.81,17.81,0,0,1,4.13-5.51c2.72-2.12,6.6-5.7,8.79-5,5.7,1.85,9.72.64,13.31-3.4,6.75,5.25,5.91,14.43-2.31,24.8,7.09.05,10,3.1,9.84,10.34-.47,19.55-.2,39.11-.22,58.67a8.13,8.13,0,0,0,.95,4.44c2.3-9.07,13-14.07,10.45-25.83-1-4.52,1.75-10,3.43-14.81.46-1.31,3.3-2.4,5-2.38,1,0,2.51,2.37,2.82,3.87,1.65,8,.11,15.2-5.74,21.24-2,2.08-3.83,4.36-6.34,7.24l14.05-2.79c-1.93,8.76-8.06,14.29-15.18,15.64-2.32.43-5.49,2.47-6.16,4.48-3.79,11.26-6.81,22.78-10.34,34.13-1.57,5.06-3.53,9.8-10.52,9.31C407.59,197.35,396.71,197.06,386.62,196.6ZM157,185.89c5.92-.53,11.76-1.54,17.59-1.48,19.35.22,38.69,1.13,58,1.19,13.87,0,27.77-1.62,41.6-1.16,20.38.68,40.7,2.69,61.06,3.93,24.74,1.51,49.49,3,74.25,4.1,11.46.52,11.47.1,12.85-11.48.1-.89.44-1.76.59-2.65,1.62-9.8,3.84-19.55,4.69-29.42,1.41-16.31,2-32.68,2.79-49,.28-6,0-12.13,0-17.56-9.46-.81-17.9-1.59-26.36-2.25-12.9-1-25.8-2.12-38.72-2.85C332,75.33,298.6,72.65,265.19,72.08c-40.14-.69-80.31.47-120.46.82-5.35,0-10.7,0-14.85,0-.25,4.34,0,7.64-.8,10.67-.4,1.5-3.85,2.35-4,3.73-1,7.93-5.19,8.88-11.92,5.3-.75,5.47-2,10.14-1.93,14.8.22,20.28.55,40.58,1.47,60.84.27,5.95,2.53,11.85,4.15,17.69a4,4,0,0,0,2.93,2.31c7.29.2,14.58.11,22.87.11-12.92-14.72-14.45-20.06-7.2-22.62-2,7.77,2.73,15.59,11.23,18.18l-6.43-8.86,1.38-1.3,8.84,7.44,1.29-1.61-15.32-14.09,1.49-1.35C146.83,168.79,154.21,174.88,157,185.89ZM100.92,74c-1.87-11-9.86-15.31-17.8-20.28-2.05,12.65.79,20.44,8.37,24,6.3,3,9.05,2.85,12.08-.46C94,76.82,85.11,68.56,86.2,60.21c2.43,3,4.29,5.73,6.67,7.95S98.21,72.09,100.92,74ZM369,222.93c6.46-12.9,4.66-23.55-4.43-25.7l2.63,16.87-1.95.26c-1.37-4.3-2.73-8.61-4.17-13.18C357.08,209.33,359.5,216,369,222.93ZM324.37,69c.9-9.46-5.18-18.06-14.8-22.49-2.05,7.53-2,7.46,4.75,10.34,1.1.47,1.81,1.89,2.65,2.92C319.19,62.51,321.38,65.28,324.37,69Zm85.2-11.65c3.93,6.36,7.1,11.49,10.63,17.22V57.36ZM208.83,38.44c6-5.09,6.58-8.76,2.9-18C205.63,25.56,204.8,30.71,208.83,38.44ZM376.71,217.12c7.66-6.26,8.54-10,5.19-15.7-.65,2.41-1.28,4.78-1.91,7.15l-1.27-.21-.6-9-2.26.1C376.12,204.83,376.37,210.19,376.71,217.12ZM359.59,197l-2.16-3c-3,1.72-6.36,3.11-8.82,5.43-.55.51,2,4.3,3.1,6.58ZM402.32,68.26c0,.82-.07,1.65-.1,2.47l10.63,4.67,2-2.25c-1.78-2.66-3.08-6.08-5.54-7.66C408.11,64.69,404.73,67.23,402.32,68.26Zm-212.13-30c-4.53,9.15-3,13.76,5.35,16.57ZM116.33,74.62c-3.49,11.21-2.66,13.73,5.5,16.32Zm306-3.62c7.15-5.48,7.58-6.94,4.44-16.58C425.43,59.37,424.1,64.32,422.31,71Zm28.13,54.37,2.83.45q1.26-8.43,2.53-16.84l-2.82-.45Q451.72,116.95,450.44,125.37ZM95.32,56.89C98.22,60,101,63,103.81,66,103.21,57.73,100.78,55.13,95.32,56.89Z"/><path class="cls-1" d="M157,185.89c-2.74-11-10.12-17.1-19-21.75l-1.49,1.35,15.32,14.09-1.29,1.61-8.84-7.44-1.38,1.3,6.43,8.86c-8.5-2.59-13.22-10.41-11.23-18.18-7.25,2.56-5.72,7.9,7.2,22.62-8.29,0-15.58.09-22.87-.11a4,4,0,0,1-2.93-2.31c-1.62-5.84-3.88-11.74-4.15-17.69-.92-20.26-1.25-40.56-1.47-60.84-.06-4.66,1.18-9.33,1.93-14.8,6.73,3.58,11,2.63,11.92-5.3.17-1.38,3.62-2.23,4-3.73.81-3,.55-6.33.8-10.67,4.15,0,9.5,0,14.85,0,40.15-.35,80.32-1.51,120.46-.82,33.41.57,66.79,3.25,100.17,5.14,12.92.73,25.82,1.85,38.72,2.85,8.46.66,16.9,1.44,26.36,2.25,0,5.43.24,11.51,0,17.56-.77,16.36-1.38,32.73-2.79,49-.85,9.87-3.07,19.62-4.69,29.42-.15.89-.49,1.76-.59,2.65-1.38,11.58-1.39,12-12.85,11.48-24.76-1.11-49.51-2.59-74.25-4.1-20.36-1.24-40.68-3.25-61.06-3.93-13.83-.46-27.73,1.2-41.6,1.16-19.34-.06-38.68-1-58-1.19C168.71,184.35,162.87,185.36,157,185.89Z"/><path class="cls-1" d="M100.92,74c-2.71-1.93-5.64-3.62-8-5.86s-4.24-5-6.67-7.95C85.11,68.56,94,76.82,103.57,77.26c-3,3.31-5.78,3.41-12.08.46-7.58-3.54-10.42-11.33-8.37-24C91.06,58.71,99.05,63,100.92,74Z"/><path class="cls-1" d="M369,222.93c-9.5-7-11.92-13.6-7.92-21.75,1.44,4.57,2.8,8.88,4.17,13.18l1.95-.26-2.63-16.87C373.66,199.38,375.46,210,369,222.93Z"/><path class="cls-1" d="M324.37,69c-3-3.73-5.18-6.5-7.4-9.23-.84-1-1.55-2.45-2.65-2.92-6.77-2.88-6.8-2.81-4.75-10.34C319.19,51,325.27,59.55,324.37,69Z"/><path class="cls-1" d="M409.57,57.36H420.2V74.58C416.67,68.85,413.5,63.72,409.57,57.36Z"/><path class="cls-1" d="M208.83,38.44c-4-7.73-3.2-12.88,2.9-18C215.41,29.68,214.82,33.35,208.83,38.44Z"/><path class="cls-1" d="M376.71,217.12c-.34-6.93-.59-12.29-.85-17.65l2.26-.1.6,9,1.27.21c.63-2.37,1.26-4.74,1.91-7.15C385.25,207.13,384.37,210.86,376.71,217.12Z"/><path class="cls-1" d="M359.59,197l-7.88,9c-1.12-2.28-3.65-6.07-3.1-6.58,2.46-2.32,5.8-3.71,8.82-5.43Z"/><path class="cls-1" d="M402.32,68.26c2.41-1,5.79-3.57,7-2.77,2.46,1.58,3.76,5,5.54,7.66l-2,2.25-10.63-4.67C402.25,69.91,402.29,69.08,402.32,68.26Z"/><path class="cls-1" d="M190.19,38.28l5.35,16.57C187.15,52,185.66,47.43,190.19,38.28Z"/><path class="cls-1" d="M116.33,74.62l5.5,16.32C113.67,88.35,112.84,85.83,116.33,74.62Z"/><path class="cls-1" d="M422.31,71c1.79-6.68,3.12-11.63,4.44-16.58C429.89,64.06,429.46,65.52,422.31,71Z"/><path class="cls-1" d="M450.44,125.37q1.28-8.43,2.54-16.84l2.82.45q-1.26,8.42-2.53,16.84Z"/><path class="cls-1" d="M95.32,56.89c5.46-1.76,7.89.84,8.49,9.12C101,63,98.22,60,95.32,56.89Z"/></g></svg>