<svg xmlns="http://www.w3.org/2000/svg" viewBox="0 0 538 249"><defs><style>.cls-1{fill:#fff;}</style></defs><g id="Layer_3" data-name="Layer 3"><path d="M182.56,54.18c1.49-.27,3.48-1.29,4.38-.69,8.08,5.38,9.61,11.34,5.93,22.34a30.21,30.21,0,0,0,3.25.46c19.36.56,38.71,1.6,58.06,1.49,15.87-.09,31.75-1.38,47.59-2.56,2.75-.21,5.34-2.52,9.1-4.42-10.39-2.81-14-8.32-13.11-18,8-1.64,10.85.6,15.18,11.88,4.16-3.58,3.6-7.3,1.17-11.91-4-7.64-2-15.21,5.53-22,2.49,4.6,5.34,8.83,7.12,13.46,1.68,4.37,1.62,8.93-3,12.18-6.19,4.36-6.64,11.45-9.43,19l7.7-1.72V61.1a12.73,12.73,0,0,1,15.33,11.83c14.26,1.59,28.41,3.44,42.61,4.64,7.89.67,15.87.13,23.81.41q10.21.36,20.4,1.37c4.61.46,9.4,1.22,8.67,8.43.87-1.34,1.67-2.75,2.63-4,2.16-2.87,3.87-6.67,6.76-8.24,3.14-1.7,7.41-1.29,11.2-1.8,0,3.31,1.08,7.14-.21,9.83-4,8.32-6.68,18.28-19,19.63.49,2.48,1,4.8,1.4,7l11.62-5.32c-.8,5-1.17,8-1.77,10.83-.31,1.51-1.68,3-1.47,4.39,1,6.35-1.51,9.62-8.52,9.42.93,14,1.8,27.4,2.73,40.78.42,6.13,1.3,12.24,1.38,18.37.08,6.35-10.47,14.66-16.7,14.14-13.11-1.1-26.26-1.86-39.39-2.76-3.59-.24-7.18-.45-10.32-.64,7.71,6.55,9.06,6.87,19.25,5.51,5.05-.68,8.57,1.54,10.51,6.23-7.54,6.45-15.16,5.76-22.75-1.86q-1.32,4.95-2.62,9.89c-10.26-2.71-13.21-8.19-8.65-17.91-12.85-2.27-25.31-4.66-37.83-6.65-7.83-1.24-15.74-2.58-23.62-2.64-10.51-.07-21,1.09-31.55,1.67-5.22.29-10.64,1.5-15.62.52-15.77-3.09-30.06,4.91-45.27,4.12,2.79,6.73,5.22,12.57,8,19.21-18.11-3.28-18.11-3.28-22.55-7.76-3.33,2.32-6.43,6.27-9.41,6.18-6.06-.2-8.95-7.49-7.87-16.12-14.63-2.12-29.22-4.49-43.88-6.27a32,32,0,0,1-28.72-33.44c.61-10.07.12-20.21.12-31.86-10.23,9.8-11.71,13.72-3.82,24.67.65.9,1.57,1.92,1.59,2.9,0,2.65.42,5.75-.81,7.79-.64,1.07-5.54,1.24-6.43.14-1.54-1.92-1.88-5.13-2-7.82-.13-3.68.43-7.39.7-11.35-3.68,5-6.33,9.09-9.6,12.62-.65.7-3.66-.78-5.32-1.19l10.18-8.87-1.41-1.65-9,5.31a6.42,6.42,0,0,1,5.56-9.56c3.89-.1,5.71-1.8,8.24-4.52,16.89-18.15,17.17-39.43,11.95-61.59-1.19-5.06-4.87-9.53-7.31-14.1-9.76,1.15-14.58-4.29-16.4-17.81C95.21,41.34,103.56,46.79,106,56c1-1.46,1.61-3,2.72-3.84a73.21,73.21,0,0,1,6.48-4.27c.83,2.88,2.67,5.91,2.25,8.59-.55,3.58-2.86,6.89-5.16,12,2.21.77,4.88,2.34,7.66,2.57,18.09,1.52,36.21,2.77,54.33,4.06,2.26.16,4.54,0,5.93,0-1.05-5.55-2.51-11.07-2.86-16.66-.08-1.36,3.49-2.94,5.37-4.4-2.62,5.75-3.62,11.33,1.34,16.67.2-2.69.38-5.07.56-7.46h1.69c1,2.94,2,5.89,3,8.84l2.64-.63c-.74-3.33-.84-7-2.41-9.89S185,56.61,182.56,54.18Zm244,31.53c-23.57-1.27-45.75-2.82-67.94-3.54-15.94-.52-31.91,0-47.86.16-24.8.3-49.6,1.27-74.39,1-35.07-.41-70.14-1.6-105.19-2.73-6.4-.21-9,2.07-9.37,8.39-.71,13.63-1,27.34-3,40.82-2.3,16.2-2,31.78,6.46,46.12,2.19,3.72,6.22,7.7,10.15,8.75,7.78,2.06,16.16,1.74,24.16,3.17,23.79,4.23,47.63,2.28,71.47,1.09,24.73-1.24,49.45-2.66,74.18-4,3-.16,6.07,0,8.35,0-.91-5.59-2.22-10.64-2.42-15.73-.21-5.32,3.61-7.13,8.07-4.06,2.4,1.65,4.32,4,6.67,6.24a27.79,27.79,0,0,1,4.1-2c2.46-.75,5-1.21,7.51-1.79.41,3,1.88,6.34,1,8.86-1.47,4.15-4.46,7.76-7.08,12,1.53.16,3.47.44,5.41.54,11.59.63,23.18,1.4,34.78,1.77,15.82.5,31.65,1.12,47.47.85,10.14-.18,13.36-5.21,12.22-15.27-1.07-9.45-2-18.95-2.31-28.45-.4-10.73.17-21.49-.21-32.21C428.44,106,427.36,96.38,426.52,85.71ZM216.43,211.78c-3-11.21-5.21-12.77-14.84-11C202.57,210.18,206.29,213,216.43,211.78ZM453,76.93c-10.11.17-14.83,5.51-16.58,15.59l10.08-10.86,1.42,1.22-10.3,15.3,2.31,1.35ZM314.08,167.05c1.1,7.81.49,15.23,8.18,19.32C326.4,179.06,323.26,170.86,314.08,167.05ZM191.52,197.42c-7.8,6.45-6.92,12.12,2.57,16.26L198,199.06l-1.75-.47-4.68,6.95-1.29-.49C190.66,202.78,191,200.51,191.52,197.42ZM320.82,53.06l2.05,0c4.11-6.72-2.19-11.53-3.65-17.23l-2,0q-.63,7.24-1.25,14.49l1.37.08L319.11,44l1.31.29C320.56,47.21,320.69,50.13,320.82,53.06ZM101.88,57l1.66-2.31L91.77,45.55l-1.65,2.08C93,52,93.69,59,101.88,57Zm226,127.32c7.82-5,8.27-5.91,6.95-13C327.89,173,326.32,177.58,327.91,184.32Zm-24.39-129-3.16,2.13,7.31,9.82,2.21-1.51Z"/><path class="cls-1" d="M426.52,85.71c.84,10.67,1.92,20.33,2.27,30,.38,10.72-.19,21.48.21,32.21.35,9.5,1.24,19,2.31,28.45,1.14,10.06-2.08,15.09-12.22,15.27-15.82.27-31.65-.35-47.47-.85-11.6-.37-23.19-1.14-34.78-1.77-1.94-.1-3.88-.38-5.41-.54,2.62-4.27,5.61-7.88,7.08-12,.88-2.52-.59-5.88-1-8.86-2.51.58-5.05,1-7.51,1.79a27.79,27.79,0,0,0-4.1,2c-2.35-2.24-4.27-4.59-6.67-6.24-4.46-3.07-8.28-1.26-8.07,4.06.2,5.09,1.51,10.14,2.42,15.73-2.28,0-5.33-.14-8.35,0-24.73,1.3-49.45,2.72-74.18,4-23.84,1.19-47.68,3.14-71.47-1.09-8-1.43-16.38-1.11-24.16-3.17-3.93-1-8-5-10.15-8.75-8.45-14.34-8.76-29.92-6.46-46.12,1.91-13.48,2.25-27.19,3-40.82.33-6.32,3-8.6,9.37-8.39,35.05,1.13,70.12,2.32,105.19,2.73,24.79.29,49.59-.68,74.39-1,15.95-.19,31.92-.68,47.86-.16C380.77,82.89,403,84.44,426.52,85.71Z"/><path class="cls-1" d="M216.43,211.78c-10.14,1.24-13.86-1.6-14.84-11C211.22,199,213.41,200.57,216.43,211.78Z"/><path class="cls-1" d="M453,76.93l-13.07,22.6-2.31-1.35,10.3-15.3-1.42-1.22L436.44,92.52C438.18,82.44,442.9,77.1,453,76.93Z"/><path class="cls-1" d="M314.08,167.05c9.18,3.81,12.32,12,8.18,19.32C314.57,182.28,315.18,174.86,314.08,167.05Z"/><path class="cls-1" d="M191.52,197.42c-.49,3.09-.86,5.36-1.22,7.63l1.29.49,4.68-6.95,1.75.47-3.93,14.62C184.6,209.54,183.72,203.87,191.52,197.42Z"/><path class="cls-1" d="M182.56,54.18c2.39,2.43,5.42,4.51,7,7.38s1.67,6.56,2.41,9.89l-2.64.63c-1-3-2-5.9-3-8.84H184.6c-.18,2.39-.36,4.77-.56,7.46-5-5.34-4-10.92-1.34-16.67Z"/><path class="cls-1" d="M320.82,53.06c-.13-2.93-.26-5.85-.4-8.78L319.11,44l-1.77,6.43L316,50.34q.63-7.25,1.25-14.49l2,0c1.46,5.7,7.76,10.51,3.65,17.23Z"/><path class="cls-1" d="M101.88,57c-8.19,2-8.84-5-11.76-9.37l1.65-2.08,11.77,9.14Z"/><path class="cls-1" d="M327.91,184.32c-1.59-6.74,0-11.35,6.95-13C336.18,178.41,335.73,179.27,327.91,184.32Z"/><path class="cls-1" d="M303.52,55.35l6.36,10.44-2.21,1.51-7.31-9.82Z"/></g></svg>