<svg xmlns="http://www.w3.org/2000/svg" viewBox="0 0 400 220"><defs><style>.cls-1{fill:#fff;}</style></defs><g id="Layer_3" data-name="Layer 3"><path class="cls-1" d="M59,61.5c8.34-5.66,14.16-5.91,18-5,6.65,1.57,8.94,7,15,7,5.44,0,8.77-4.35,12-7,12.09-9.93,29.22-1.26,69,3,12.58,1.35,21.89,1.66,32,2a489.74,489.74,0,0,0,52-1h83l12,5h5v38l6,39v26l-1,13-11,4H266l-55-3-62-1-30-3H85l-16,3-10-6V61.5Z"/><path d="M222.09,180.27c.12-7.54,4.07-14.05,10.19-15.71,2.4-.65,6.05-.11,7.8,1.42,1.09,1,.11,4.92-.74,7.24-.64,1.77-2.55,3.08-4.37,5.13,8.53.68,16.5,1.46,24.49,1.93,25.43,1.49,50.86,3,76.3,4.17a51.69,51.69,0,0,0,14.12-1.69c9.22-2.19,11.2-5.15,10.4-15q-1.87-23.07-4.19-46.1c-.15-1.5-1.45-3-2.55-4.25-2.48-2.68-6.16-4.72-7.51-7.83-1.54-3.55-1.09-8-1.5-12l10.27-.48c0-6.46.17-14-.06-21.51-.14-4.42-1.95-8.12-7-8.59-15.81-1.47-31.61-3.71-47.44-4-21.65-.4-43.33.67-65,1.22-13.43.34-26.86,1.07-40.3,1.27a112.25,112.25,0,0,1-71.62-23.65c-12,8.22-17,9.2-18.84,3-2.41-8.17,6.7-7.22,11.42-11.64C105.5,30.79,98.23,25,94.37,15.52c8.3-2,16.85,3.42,20.49,10.6,2.53,5,7.13,9.51,11.82,12.77,5.43,3.76,12,5.91,19.87,9.61C142,40.29,141.8,32.26,133,28.86c-3.48-1.35-6.12-6.57-7.74-10.59-1.76-4.36,1.87-7.37,6.46-5.95,6.72,2.09,13.6,6.58,9.84,16a3.37,3.37,0,0,0-.05,2.53c3.71,6.22,7.17,12.64,11.52,18.39,1.73,2.28,5.49,3,8.53,4.57-.51-6.44-.93-11.68-1.45-18.2,10.75,4.15,13.9,10.85,14.14,19.55,16.59,4.43,33.19,3.13,50,2.53,26.9-.95,53.86.21,80.8.42,11.55.09,23.1,0,34.06,0C335,49.7,335.43,46.82,341,44.25c.68-5.35,1.27-10,1.85-14.58l3.21-.84,12.54,19.46a6.46,6.46,0,0,1,1.7-1.2c2.73-1,5.52-1.9,8.29-2.84,0,3.63.07,7.26.08,10.88a.82.82,0,0,1-.39.55c-8.87,5.64-7.29,13.85-6.8,22.71.94,17,.27,34.05.27,51.08l2,.11c3.35-3.84,6.4-8,10.18-11.36,1.69-1.5,4.83-1.37,7.32-2-.06,2,.21,4.19-.24,6.15-2.26,9.85-6.35,18.48-17,23.4.88,5.7,1.7,11.72,2.75,17.71,3,17.17-2.92,26.93-22.13,27.67-14.23.55-28.55-1.44-42.83-2.25-2.49-.14-5,0-5.88,0-2.23,3.33-3.48,7.34-5.62,7.88-2.95.75-8.42,0-9.59-2-5.31-9.12-13.63-6.71-21.21-7.45-.54,2.88-.59,5.39-1.5,7.54-3.12,7.33-9.71,8.58-13,1.65-4.5-9.44-11.45-9.77-19.9-9.25C213.05,188,201,189,189,188.52c-16-.61-32-2.92-48-3.75-21.42-1.11-42.88-1.51-64.32-2.22L76.12,185c2.06.79,4.1,1.6,6.17,2.36,2.71,1,6.57,1.21,7.89,3.15,2.38,3.5,3.66,8,4.4,12.21.15.86-4.49,3.91-6.35,3.47-4.13-1-8-3.3-11.75-5.53-1-.6-1-2.87-1-3.19-3.87-.31-8.74.6-9.9-1.08-1.9-2.74-1.4-7.16-2.16-12.71-5.77-2.88-7.9-8.84-6.08-17.9,1.42-7.1-.37-14.85-.76-22.81-5.09,1.23-9.49,8.65-13.63.58-3.76-7.34-2.4-10,7.44-15.12-1.17-3.12-2-6.47-3.67-9.4A8,8,0,0,0,42,115.47c-10.52-2.28-12.92-5.6-11-16.28-8.75-5.87-14.93-13.11-11.26-25.74,12,4,15.63,13.66,18.44,25.61l6-20.78c7.79,6.7,7,15,4.48,20.31-4.56,9.68,1.34,14.92,6.15,21.55.48-4,1.43-7.94,1.36-11.91q-.32-18.78-1.3-37.55C54.39,61,57.8,56.39,68.28,53.87c.11-.72,0-1.79.42-2.4,1.71-2.29,3.61-4.42,5.44-6.62,2.2,1.84,5.4,3.25,6.39,5.6,2.7,6.37,11.7,9.5,17.46,5.39,8.49-6.06,14-5.4,21.62,1.74,2.08,2,5.77,2.1,8.11,3.88s4.19,4.72,6.23,7.14c-3.45,1.19-6.88,3.16-10.38,3.32a9.14,9.14,0,0,1-6.93-3.85c-4.07-7-10.27-5-15.16-5.1-1.5,2.76-2.17,5.9-3.93,6.73s-5.83.2-6.8-1.22c-6.23-9.11-14.91-5.28-22.91-4.94-1.76.08-3.49.78-6.21,1.43.53,5.87,1.39,11.67,1.5,17.47.23,12.34-.1,24.7.12,37,.29,16.2.88,32.4,1.38,48.59.19,6.22,4.32,8.27,9.6,8.15,8.83-.2,17.78-.15,26.46-1.53,15.86-2.52,31.14.22,46.61,2.85a203.44,203.44,0,0,0,28.42,2.62C191,180.58,206.3,180.27,222.09,180.27Zm157-58.41-3.42-2.2-12.53,20.61c1.1.67,2.2,1.34,3.29,2ZM347.21,34.6l-2,.77c-.43,8.46,2.72,15.39,8.26,21.3l2.57-1.08Q351.63,45.11,347.21,34.6ZM80.4,197.43l-.87,2.32,11.3,4.18c.23-9.92-1.55-12.09-8.59-11.9,1.19,2.15,2.36,4.25,4.26,7.65ZM24.54,78.75l-2.75,1.86c.48,7.09,5.4,11,10.51,14.85l2-1.32Zm221,107.14-2.67,2.92,8.5,8,3.85-5ZM49.37,131.3c-2.48,3.48-4.49,5.43-5.23,7.78-.26.85,3.41,4,3.77,3.81a19.67,19.67,0,0,0,5.84-5.65C54.11,136.69,51.69,134.36,49.37,131.3ZM127.69,17.84l10.5,11.27C139.59,19.39,137,16.63,127.69,17.84ZM224.52,176.3l2.25,2.25c4-3.07,11-3.31,8.69-12.57ZM356.42,59.09l3.11,1.85Q363.75,55,368,49l-2.81-1.94Zm-13.5-12.81-2.09-.14c-.19,2.17-1.31,5-.37,6.38,1.75,2.6,4.71,4.38,7.17,6.51l1.13-1.36Q345.85,52,342.92,46.28Zm14.14,67.5c-3.26-6.07-5.53-10.31-8.24-15.34C345.77,105.3,348,109.48,357.06,113.78ZM164.46,40.09c-.93,8.75.9,11.73,7.25,12.43ZM40.57,112.16l2.52-2.76-7.36-6.12c-.68,1-2.08,2.66-1.94,2.81C35.93,108.23,38.27,110.17,40.57,112.16Z"/><path class="cls-1" d="M379.13,121.86l-12.66,20.43c-1.09-.68-2.19-1.35-3.29-2l12.53-20.61Z"/><path class="cls-1" d="M347.21,34.6q4.43,10.5,8.84,21l-2.57,1.08c-5.54-5.91-8.69-12.84-8.26-21.3Z"/><path class="cls-1" d="M80.4,197.43l6.1,2.25c-1.9-3.4-3.07-5.5-4.26-7.65,7-.19,8.82,2,8.59,11.9l-11.3-4.18Z"/><path class="cls-1" d="M24.54,78.75l9.75,15.39-2,1.32c-5.11-3.81-10-7.76-10.51-14.85Z"/><path class="cls-1" d="M245.53,185.89l9.68,5.92-3.85,5-8.5-8Z"/><path class="cls-1" d="M49.37,131.3c2.32,3.06,4.74,5.39,4.38,5.94a19.67,19.67,0,0,1-5.84,5.65c-.36.23-4-3-3.77-3.81C44.88,136.73,46.89,134.78,49.37,131.3Z"/><path class="cls-1" d="M127.69,17.84c9.29-1.21,11.9,1.55,10.5,11.27Z"/><path class="cls-1" d="M224.52,176.3,235.46,166c2.35,9.26-4.66,9.5-8.69,12.57Z"/><path class="cls-1" d="M356.42,59.09l8.72-12L368,49q-4.2,6-8.42,11.95Z"/><path class="cls-1" d="M342.92,46.28q2.93,5.7,5.84,11.39L347.63,59c-2.46-2.13-5.42-3.91-7.17-6.51-.94-1.41.18-4.21.37-6.38Z"/><path class="cls-1" d="M357.06,113.78c-9.09-4.3-11.29-8.48-8.24-15.34C351.53,103.47,353.8,107.71,357.06,113.78Z"/><path class="cls-1" d="M164.46,40.09l7.25,12.43C165.36,51.82,163.53,48.84,164.46,40.09Z"/><path class="cls-1" d="M40.57,112.16c-2.3-2-4.64-3.93-6.78-6.07-.14-.15,1.26-1.84,1.94-2.81l7.36,6.12Z"/></g></svg>