<svg xmlns="http://www.w3.org/2000/svg" viewBox="0 0 538 249"><defs><style>.cls-1{fill:#fff;}</style></defs><g id="Layer_3" data-name="Layer 3"><path class="cls-1" d="M95.48,81c-1.73-3-3.28-5.66-6-6a6.1,6.1,0,0,0-5,2c-3.07,3.31-1.39,9.16,0,14,1.32,4.59,3.85,13.41,9,14a6.08,6.08,0,0,0,5-2c.69-.79,1.58-2.29,1-8C99.06,90.93,98.53,86.24,95.48,81Z"/><path d="M202.33,210.84c-4.64,2.92-8.24,5.75-12.29,7.57s-8.4-2.17-7.63-6.58c1-5.65,6.45-11,12.48-10.55,5.46.39,8.52-1.79,11.55-5.76,2-2.62,5-4.48,7.73-6.86-27.25,1-53.36,2.05-79.48,2.82-11.33.34-16-4.61-16.83-16.18-.76-11.08-1.08-22.27-2.88-33.19-2.43-14.85-10.4-26.85-22.77-35.43-7.48-5.2-13-19.08-9.6-27.13.73-1.73,2.42-3,4.62-4.51-4.48,10.51-2.5,19.37,6,28C91.42,97.28,90,92.62,88.53,88l2.23-.86q2.64,6,5.29,12l2.39-.91q-3.5-10.74-7-21.48l.71-.78c1.9,2.43,4.82,4.61,5.49,7.35,1.63,6.67,2,13.64,3.33,20.42a15.94,15.94,0,0,0,3.2,6.1c2,2.66,4.4,5,7.91,9,.88-19.1-1.06-36.62,9.12-51-2.71-3.69-6.07-7.67-8.67-12.1-1.07-1.82-.49-4.61-.65-7,2.29,0,4.59,0,6.89.12a10.61,10.61,0,0,1,2.32.6c1.22-4.26,2-8.76,3.84-12.79,1.2-2.66,3.81-6.4,5.91-6.47,2.32-.08,5.81,3,6.95,5.51a74,74,0,0,1,4.63,16c.65,3.26.12,6.75.12,10.38L255,59.27c-2.36-6.44-4.93-13.42-7.49-20.39L249,37.8l14.88,11.34c3.78-4.15,7.51-9.26,13.51-4.38,4,3.25,2.48,7.7-5.05,15.75h48.74c-3.31-6.82-5.7-14,2.86-19.79,6.1,5,6.53,12.11,6.5,19.74a19.88,19.88,0,0,0,3.13.72c23.81,1.41,47.63,2.69,71.43,4.24,5.62.37,11.17,2.26,16.76,2.29,7.93,0,9.3,5.53,9.89,11.09,1,9.19.9,18.48,1.52,27.72,1.29,19.19,2.75,38.37,4.57,57.55,3.18-16.63-2.3-34.3,7.17-50.22,4.44,4.38,4.4,10,2.13,15.55-3.6,8.78-5.58,17.64-3.62,28.25,5.47-8.38-2.22-23.39,13.53-25.52,1.69,9.7-.15,16.5-7.17,23.85s-12.13,17.28-11.29,28.89c.56,7.75-3.42,9.95-11.24,8.95-5.7-.73-11.61.42-17.43.35-7.31-.09-15.1,1-21.83-1.18-18.37-5.85-36.81-4.86-55.29-2.55-16,2-31.51,0-47.36-1.85A329.68,329.68,0,0,0,229,186.83c-7.24.39-14.16,7-20.79,10.52,1.87,5.08,3.57,8.26,4.07,11.61.31,2.07-1.2,4.4-1.9,6.62-2.29-1-4.63-1.8-6.85-2.9C202.9,212.36,202.62,211.31,202.33,210.84Zm-65.5-29.4c33.39,3,67.61-2.12,101.94-5.82,9-1,18.18-.28,27.22.45,13.07,1.06,26.06,3.27,39.13,4.21,24.27,1.75,48.59,2.92,72.88,4.37,4.73.28,9.44,1,14.17,1.14,9.47.19,19-.31,28.41.22,4.82.28,7.66-1.17,8.34-5.68a104.66,104.66,0,0,0,1.41-16.84c-.17-12.54-.49-25.11-1.44-37.61-.84-11-2.61-21.95-4-33l-8.82,6.6-4.51-15.76c-5.15-.74-9.17-3.13-8-9.85-2.08-.56-4-1.45-6-1.57-17.17-1-34.34-2-51.53-2.78-14.8-.64-29.61-1.29-44.42-1.31-13.45,0-26.9,1-40.36,1.25-43.75,1-87.51,1.82-131.26,3-1.81,0-4.49,2.33-5.2,4.17-7.45,19.53-6.09,39.72-4,59.93.9,8.58,1.9,17.15,2.91,26.14l13.11-11.44ZM135,64.92c7.24-10,5.06-23.34-4.15-31.75-6.23,10.51-6.64,16.88-1.26,20.84.51-2.1,1-4.16,1.52-6.22l2.27-.14C133.88,53,134.38,58.3,135,64.92Zm-7.5,0c2.14-7.24-1.23-10.66-12.28-12.9C116.27,59.31,120.73,62.93,127.5,65Zm3.12,113.36c4.88-5.71,6.73-12,2.51-19.58-3.2,4.37-9.26,7.06-5.34,13.77,1.31-2.07,2.51-3.95,3.71-5.83l1.66.83Q131.89,172.9,130.62,178.31Zm60,27.7a9.85,9.85,0,0,0-2.64,2.56c-.86,1.54-1,3.45-1.52,5.2,1.82.06,4,.78,5.39,0,2.9-1.56,5.37-3.89,8-5.9ZM422,77.68l-2.32-.21c-4.47,5-3.52,10.45-1.91,16l2.78.26Zm-154.21-19c3.5-4.16,10.18-5.33,6.6-12.84C268.37,47.79,266.29,51.66,267.79,58.67ZM253.49,45.5l-1.43,1,9.74,13.33C264.16,51.39,256.67,50,253.49,45.5ZM324,59.57,327.6,59q-1.29-6-2.59-12l-3,.54ZM448.72,149.9l2.7.9q1.44-6.6,2.86-13.19l-2.65-.64Z"/><path class="cls-1" d="M136.83,181.44V151.19l-13.11,11.44c-1-9-2-17.56-2.91-26.14-2.11-20.21-3.47-40.4,4-59.93.71-1.84,3.39-4.13,5.2-4.17,43.75-1.15,87.51-2,131.26-3,13.46-.3,26.91-1.26,40.36-1.25,14.81,0,29.62.67,44.42,1.31,17.19.75,34.36,1.76,51.53,2.78,2,.12,3.93,1,6,1.57-1.17,6.72,2.85,9.11,8,9.85l4.51,15.76,8.82-6.6c1.38,11.09,3.15,22,4,33,.95,12.5,1.27,25.07,1.44,37.61a104.66,104.66,0,0,1-1.41,16.84c-.68,4.51-3.52,6-8.34,5.68-9.44-.53-18.94,0-28.41-.22-4.73-.09-9.44-.86-14.17-1.14-24.29-1.45-48.61-2.62-72.88-4.37-13.07-.94-26.06-3.15-39.13-4.21-9-.73-18.26-1.42-27.22-.45C204.44,179.32,170.22,184.42,136.83,181.44Z"/><path class="cls-1" d="M135,64.92c-.62-6.62-1.12-11.94-1.62-17.27l-2.27.14c-.51,2.06-1,4.12-1.52,6.22-5.38-4-5-10.33,1.26-20.84C140.06,41.58,142.24,54.93,135,64.92Z"/><path class="cls-1" d="M127.5,65c-6.77-2-11.23-5.64-12.28-12.9C126.27,54.29,129.64,57.71,127.5,65Z"/><path class="cls-1" d="M130.62,178.31q1.27-5.4,2.54-10.81l-1.66-.83c-1.2,1.88-2.4,3.76-3.71,5.83-3.92-6.71,2.14-9.4,5.34-13.77C137.35,166.27,135.5,172.6,130.62,178.31Z"/><path class="cls-1" d="M190.64,206l9.24,1.89c-2.64,2-5.11,4.34-8,5.9-1.39.75-3.57,0-5.39,0,.48-1.75.66-3.66,1.52-5.2A9.85,9.85,0,0,1,190.64,206Z"/><path class="cls-1" d="M422,77.68l-1.45,16-2.78-.26c-1.61-5.55-2.56-11,1.91-16Z"/><path class="cls-1" d="M267.79,58.67c-1.5-7,.58-10.88,6.6-12.84C278,53.34,271.29,54.51,267.79,58.67Z"/><path class="cls-1" d="M253.49,45.5c3.18,4.5,10.67,5.89,8.31,14.37l-9.74-13.33Z"/><path class="cls-1" d="M324,59.57l-2-12,3-.54q1.29,6,2.59,12Z"/><path class="cls-1" d="M448.72,149.9,451.63,137l2.65.64q-1.42,6.6-2.86,13.19Z"/></g></svg>