<svg width="47" height="47" viewBox="0 0 47 47" fill="none" xmlns="http://www.w3.org/2000/svg">
<path d="M23.4817 11.393C16.8159 11.393 11.4159 16.7872 11.4159 23.4401C11.4159 30.0955 16.8159 35.4897 23.4817 35.4897C30.1423 35.4897 35.5475 30.0955 35.5475 23.4401C35.5475 16.7872 30.1423 11.393 23.4817 11.393ZM23.4817 31.2682C19.1518 31.2682 15.6414 27.7633 15.6414 23.4427C15.6414 19.1195 19.1518 15.6172 23.4817 15.6172C27.8116 15.6172 31.3168 19.1195 31.3168 23.4427C31.3168 27.7633 27.8116 31.2682 23.4817 31.2682Z" fill="url(#paint0_linear)"/>
<path d="M36.0278 13.7591C37.5816 13.7591 38.8413 12.5014 38.8413 10.95C38.8413 9.39853 37.5816 8.14083 36.0278 8.14083C34.4739 8.14083 33.2142 9.39853 33.2142 10.95C33.2142 12.5014 34.4739 13.7591 36.0278 13.7591Z" fill="url(#paint1_linear)"/>
<path d="M45.7551 8.09392C44.531 4.94339 42.0385 2.45215 38.8831 1.2352C37.0587 0.549845 35.1299 0.182413 33.1777 0.140718C30.6643 0.0312705 29.8683 0 23.4948 0C17.1213 0 16.3044 -2.62109e-07 13.8119 0.140718C11.8648 0.179807 9.93608 0.547239 8.11173 1.2352C4.95369 2.45215 2.46118 4.94339 1.23973 8.09392C0.553309 9.91805 0.185307 11.8412 0.146157 13.7904C0.0339293 16.2973 0 17.0921 0 23.4583C0 29.8219 -1.94457e-08 30.6323 0.146157 33.1262C0.185307 35.0754 0.553309 36.9986 1.23973 38.8253C2.46379 41.9732 4.9563 44.4645 8.11434 45.684C9.93086 46.3928 11.8596 46.7941 13.8171 46.8567C16.3305 46.9661 17.1265 47 23.5 47C29.8735 47 30.6904 47 33.1829 46.8567C35.1326 46.8176 37.0613 46.4476 38.8883 45.7648C42.0437 44.5426 44.5362 42.054 45.7603 38.9035C46.4467 37.0793 46.8147 35.1562 46.8538 33.207C46.9661 30.7001 47 29.9053 47 23.5391C47 17.1729 47 16.365 46.8538 13.8712C46.8199 11.8959 46.4545 9.9389 45.7551 8.09392ZM42.5761 32.9334C42.5579 34.4344 42.2864 35.9223 41.7644 37.3321C40.9684 39.383 39.3476 41.0038 37.2962 41.7908C35.8999 42.3094 34.4279 42.5804 32.9376 42.6012C30.4581 42.7159 29.7587 42.7446 23.4008 42.7446C17.0378 42.7446 16.3879 42.7446 13.8615 42.6012C12.3764 42.583 10.8992 42.3094 9.50544 41.7908C7.44619 41.0064 5.81497 39.3856 5.01894 37.3321C4.50739 35.9406 4.23073 34.4682 4.20724 32.9829C4.09501 30.5073 4.06891 29.8089 4.06891 23.4609C4.06891 17.1103 4.06891 16.4615 4.20724 13.9363C4.22551 12.4354 4.49695 10.95 5.01894 9.5402C5.81497 7.48414 7.44619 5.86588 9.50544 5.0789C10.8992 4.56293 12.3764 4.28931 13.8615 4.26846C16.3435 4.15641 17.0404 4.12514 23.4008 4.12514C29.7613 4.12514 30.4138 4.12514 32.9376 4.26846C34.4279 4.2867 35.8999 4.56032 37.2962 5.0789C39.3476 5.86848 40.9684 7.48935 41.7644 9.5402C42.276 10.9317 42.5526 12.4041 42.5761 13.8894C42.6884 16.3677 42.7171 17.0634 42.7171 23.414C42.7171 29.762 42.7171 30.4447 42.6048 32.936H42.5761V32.9334Z" fill="url(#paint2_linear)"/>
<defs>
<linearGradient id="paint0_linear" x1="-8.27395" y1="-6.57146e-07" x2="-4.89635" y2="63.4693" gradientUnits="userSpaceOnUse">
<stop stop-color="#F4CBA2"/>
<stop offset="0.197917" stop-color="#F5B790"/>
<stop offset="1" stop-color="#FA6747"/>
</linearGradient>
<linearGradient id="paint1_linear" x1="-8.27395" y1="-6.57146e-07" x2="-4.89635" y2="63.4693" gradientUnits="userSpaceOnUse">
<stop stop-color="#F4CBA2"/>
<stop offset="0.197917" stop-color="#F5B790"/>
<stop offset="1" stop-color="#FA6747"/>
</linearGradient>
<linearGradient id="paint2_linear" x1="-8.27395" y1="-6.57146e-07" x2="-4.89635" y2="63.4693" gradientUnits="userSpaceOnUse">
<stop stop-color="#F4CBA2"/>
<stop offset="0.197917" stop-color="#F5B790"/>
<stop offset="1" stop-color="#FA6747"/>
</linearGradient>
</defs>
</svg>
