<svg xmlns="http://www.w3.org/2000/svg" viewBox="0 0 567.93 567.93"><defs><style>.cls-1{fill:none;stroke:#000;stroke-width:0.5px;stroke-dasharray:4 3;}.cls-2{fill:#b06926;stroke:#b16a26;stroke-linejoin:round;stroke-width:5px;}</style></defs><g id="Crop_Marks" data-name="Crop Marks"><line class="cls-1" x1="50.06" y1="-13.15" x2="50.06" y2="14.15"/><path class="cls-2" d="M154,130.32c-.77.77-1.71,1.42,0,0Z"/><path class="cls-2" d="M548.62,395.82c-1.5-21.69-16.69-31.2-34-37.13-11-3.74-17.26-9.18-22.34-19.7-15.23-31.52-46.67-40.7-76.73-22.54-9.67,5.8-17.14,15.27-22.3,20.06-36.44.69-50.62-28.43-70.28-45.09,8.61-22.22,16.78-43.22,24.9-64.22,52.28,20,103.34,14,153.23-13.65,21.32-11.82,27-29.12,26.68-51.5-.32-21.74-12-33.8-30.54-41.56-6.95-2.92-13.73-6.3-16.41-7.55-5-17.8-6-34.57-14-46.76C446.22,34.74,391.09,27.43,364.49,54.6c-2.68,2.73-8.17,6.34-10.36,5.32-16.49-7.75-31.2-3.29-45.25,6-4.19-4.59-7.48-8.41-10.93-12.07-35.83-38.14-98.38-27.42-116.38,22C174.42,95.59,168.94,115,154,130.32c-.77.77-1.71,1.42,0,0-12.55,0-22.54-.69-32.41.16-17.51,1.47-32.46,13.29-36.2,28.11-3.9,15.6,5.12,25.31,16.09,34.17,2.8,2.27,4.75,5.52,7.27,8.16,5.85,6.09,10.76,14.46,17.91,17.63,18.32,8.2,37.54,13.73,58.21,6.7,17.31-5.85,35.3-9.71,52.61-15.56,25.38-8.61,50.61-10,74.7,2.32,5.73,2.92,12.43,14.09,10.93,19.21-5.94,20.39-14.1,41.68-33.44,52.65-29.89,17-61.45,31-92.37,46.31-8.65-21.57-21.85-41.23-43.62-53.87C126.9,260.79,103,269.49,90.46,297.8c-4.63,10.52-10.81,21.25-19,29-7.64,7.23-18.4,14-31.93,5.28,25.59-13.81,43-32.61,51.79-58.86,8.41-25.26-.73-44.72-25.67-55.36-4.79-2-10.24-5-12.92-9.14-13.52-21.12-33-31.89-52.52-32.25v13.85a46.66,46.66,0,0,1,13.49,1.5C39,198.36,47.89,222.57,41.51,262c5.2-10,10.36-20,15.8-30.58,19.46,4.14,27.14,17.1,20.56,37.61-12.23,38.1-44,52.12-77.63,62.56v14.38c5.93.36,11.46,3.57,16.82,9.46,18.24,20.07,41.71,22.3,62.68,4.83C97,345.85,111.46,328.1,129,310c26.32,4.18,42.37,34.24,29.29,62.06-6.83,14.59-15.4,28.89-19.1,44.28-10.56,43.95-3.29,86.69,15.48,127.19,5.57,12,3.78,18.84-5.28,24.45H291.78c-12.19-24.5-29.58-40.13-53.62-48.66-43.55-15.44-73.45-103.51-30.23-145.83,22.26-21.82,46.47-40.26,75.64-51.75,24-9.47,30.38-7.72,43.91,10.23-8.49,12.15-15.92,23.44-24.09,34.16-5,6.58-11.53,11.95-16.73,18.41-8.17,10-21.29,20.18-21.94,30.95-.57,9.14,12.19,20.84,21.57,28.19,5.16,4,15.6,2.27,23.52,1.66,18.28-1.46,34-14.78,54.6-8.2,19.94,6.42,41.1,8.77,62.27,1.06,23.72-8.66,47.4-7.11,71.57,1.09,8.33,2.85,20.43.9,28.6-3.25C542.28,428.15,549.92,414.14,548.62,395.82ZM215.45,202.42c-25.14,11-51.91,16.41-79.13,5.53-1.83-.73-3.37-2.07-6.74-4.27,11-1.62,19.94-3,28.88-4.34.08-1.79.12-3.58.2-5.37-6-2-12.14-3.73-18.12-6-11.17-4.18-22.3-8.45-33.35-13-12.55-5.2-9.66-13.6-3.16-21.28,13.32-15.72,40.29-12.19,51,8.69,8.36-32.46,32.21-47.93,58.21-62.43h-23c5.2-32.18,39.32-61.3,64.75-56.22S300.18,71,294.86,91.08c9.43-5.73,17.27-11.7,26-15.48,7.72-3.33,16.49-4.26,28.48-7.14-7.8,18.84-13.21,32-18.61,45.08.57.29,1.1.53,1.67.82,13-15.4,25.87-31,39.07-46.23,21.94-25.27,66.09-19,82.71,4.87,7.31,10.53,8.16,25.72,11.09,39,.4,1.71-4.35,4.43-6.46,6.87-8.73,9.91-17.35,19.86-26,29.81,1.71,1.79,3.37,3.62,5.08,5.4,13.12-21.12,30.26-30.1,54.15-20.06,10.76,4.55,20.59,10.11,21.16,23.23.61,14.95,2.64,30.47-13.57,40.38-53.17,32.54-108,37.65-163.78,8.49C295.84,185.16,256.68,184.39,215.45,202.42ZM503.37,424c-33.84-10.56-66.09-3.21-99,2a56.77,56.77,0,0,1-26.2-2.27c-24.5-8.33-47.49.65-70.85,4.67-11.94,2-22.34,1.18-24.73-12.15s6.58-17.59,18.88-19.9c5-.94,8.49-9.71,12.76-14.79,9.46-11.29,17.51-24.49,29-33.15,12.19-9.18,26.36-6.05,38,5.41-7.11,5.07-13.16,9.42-19.21,13.73.4.89.85,1.78,1.3,2.68,17.91-3.94,35.83-7.92,56-12.39-5.48-2.4-10.48-4.55-15.63-6.78,6.66-17,19.09-28.07,37.45-28.85,17.34-.77,31.56,7,39,23.81,8,18,1.1,32.86-8,49.6,6.46-5.16,12.72-10.61,19.5-15.28,5.24-3.65,13.12-10.32,16.41-8.69,9.47,4.63,21.29,11.17,24.74,19.9C540.66,411.62,523.88,430.43,503.37,424Z"/></g></svg>