<svg id="Layer_1" data-name="Layer 1" xmlns="http://www.w3.org/2000/svg" viewBox="0 0 1501.32 1501.32"><defs><style>.cls-1{fill:#fff;}</style></defs><path d="M796.08,1278.47c16.57,4.9,31.27,9.2,45.95,13.62a124.35,124.35,0,0,1,12.17,4.26c4.54,1.89,5.28,7.86,1,10.41-3.39,2-7.48,4-11.29,4-23.38.33-46.85,1.3-70.12-.36-13.49-1-26.86-5.89-39.92-10.14-8.11-2.64-11.32-10.17-10.89-18.34.44-8.53,4.73-14.49,13.38-17.59,16.22-5.8,31.87-13.37,48.33-18.24A340.66,340.66,0,0,1,834,1235.9c30.12-4.22,60.39-7.55,90.64-10.76,12.38-1.31,24.88-1.34,37.4-3.25-4.52-.35-9-1.17-13.55-1-43.24,1.88-86.49,3.77-129.72,6-19,1-38,2.93-57,4.29-23.07,1.64-46.2,2.64-69.23,4.81-30.84,2.89-61.61,6.66-92.42,10-15.12,1.65-30.31,2.85-45.38,4.89-22,3-44,6.5-66,9.89-8.84,1.36-17.63,3-26.46,4.5-14.16,2.36-28.29,5.17-42.54,6.73-5,.55-10.77-1.2-15.53-3.34-5.25-2.35-5.35-7.82-2.23-11.82s7.1-8.23,11.58-9.64c18.25-5.76,36.69-11.06,55.33-15.38,17.66-4.09,35.64-6.83,53.51-10,9.36-1.67,18.74-3.27,28.16-4.41q36.82-4.48,73.69-8.48,48.26-5.21,96.56-10c17.87-1.76,35.77-3.35,53.69-4.5,28.8-1.86,57.6-3.93,86.44-4.77,51.16-1.49,102.36-2.88,153.54-2.8,28,0,56,2.58,83.2,10.43,13.76,4,20.71,11.88,20.34,23.74-.33,10.51-8.47,19.64-22,21.62-30.61,4.46-61.31,8.48-92.08,11.65-39.5,4.07-79.13,6.85-118.65,10.76-22.7,2.25-45.3,5.49-67.9,8.6C810.74,1274.67,804.22,1276.64,796.08,1278.47Z"/><path d="M974.25,1137.9l49.24-3.87c-2.7-32.07,12.4-51.34,39.19-62.22,16-6.51,32.66-10.8,49,.56,2,1.36,5.79.69,8.57.09,15.24-3.27,26.16,8.11,21.11,22.79-1.83,5.32,0,8.86,3.64,11.27,10.35,6.8,21,13.09,31.7,19.42,2.18,1.29,4.78,1.87,8.24,3.18-2.72-30.82,4.3-59.65,15.11-89.07-3.43-.23-6.22-.61-9-.57-6.53.09-13.08.77-19.59.49-11.89-.52-18.76-8.19-17.44-18.78,1.19-9.46,11.61-16,21.88-14.83,11.29,1.32,22.69,1.92,34.06,2.17,2.2.05,5.11-2.51,6.6-4.64,5-7.09,9.14-14.8,14.32-21.75a59.79,59.79,0,0,1,12.47-12.69c7.51-5.48,16.43-4.88,21.74.34,4.29,4.21,4.83,13.43.78,20.57-3.87,6.82-8.16,13.4-13,21.34,3.59,1.86,7.31,3.24,10.38,5.51s8.14,5.69,8,8.4c-.15,3.47-3.93,8.19-7.36,9.8-7.22,3.39-15.32,4.84-22.85,7.65-2.82,1-6.26,3.11-7.4,5.63A226.93,226.93,0,0,0,1215,1115c-.9,7.28-1.88,14.68-4.07,21.63-1,3.3-4.63,7.45-7.69,8.06-3.91.76-8.81-1-12.58-3-2.82-1.48-4.53-5.08-6.77-7.79-14,14.17-35.4,16.66-53,5.21-7.91-5.14-12.25-5.25-19.63,1.62-19.6,18.23-42.23,24.64-68.13,12.59-3.17-1.47-8.78-.46-12,1.47-27.87,16.43-57.28,20.85-88.58,12.68a18.83,18.83,0,0,1-4.5-1.86c-9.31-5.37-18.5-10.39-29.42-12.69-10.31-2.18-13.27-14.9-4.74-20.72,8.36-5.7,12.6-12.76,15.44-21.71,1-3,2.84-5.83,4.83-9.8-2.62-.28-5-1.19-7-.67-18.54,4.81-37.58,8.43-55.34,15.3-14.51,5.61-23.62,17.56-24,34.66-.23,9.29-4.67,16.87-14,20.17-7.08,2.51-14.14-.2-17.08-6.08a44.82,44.82,0,0,1-4.2-21.54c.47-8.8,3.15-17.58,5.67-26.14,4.51-15.29,9.31-30.51,14.59-45.55,2.44-7,8.45-9.85,15.75-8.84s10.65,5.88,11.3,12.91c.47,5.11,2.81,5.18,7.25,3.69,15.69-5.3,31.48-10,48.45-9.4,11.41.43,21.87,2.59,31.31,9.46,1.82,1.32,6,.84,8.38-.3,9.73-4.65,18.88-10.61,28.82-14.7,14.56-6,30.57,1.8,35.82,16.37,3.09,8.58.38,16.85-4.47,23.1-7.4,9.54-16.66,17.65-25.24,26.26a74.58,74.58,0,0,1-6.77,5.44C973.62,1135.88,973.94,1136.89,974.25,1137.9Zm124.15-36.38c-11-4.29-27,.27-35.12,10-2,2.44-2.42,6.23-3.56,9.4,3.27.93,6.62,2.87,9.8,2.63C1083.76,1122.5,1091.83,1113.19,1098.4,1101.52Z"/><path d="M610.68,1153.1c13.15-.71,25.6-.83,37.9-2.23,8.2-.94,16.11-4.22,24.31-5.36,3.21-.45,6.83,2.07,10.84,3.44-14.61,21.09-34.46,29.11-56.39,34.25-17.62,4.13-34.91,5-52.33-.29-1.3-.39-3-.35-3.85-1.18-8.25-7.71-15.25-2.62-22.83,1.54a153.36,153.36,0,0,1-96.74,17.78c-22.46-3.1-33.17-26.71-23.19-47.82,1.57-3.33,2.92-6.75,4.58-10.61-38.18,3.9-72.42,13.35-95,46.78-4.55,6.74-10,13-19.4,13.28-14.75.51-23.42-13.47-15.46-28.7,11.64-22.25,25.16-43.54,38.46-64.89,2.56-4.09,7.41-7.23,11.85-9.57,11.46-6,20.3-.3,20.6,12.77,0,1.8.35,3.61.6,6,7.05-1.56,13.67-2.64,20.05-4.52,17.92-5.27,34.76-3.78,50.78,6.41,1.67,1.07,6.17-.09,7.94-1.74,12.11-11.31,25.67-20.11,41.61-24.75s33.18-.76,38.73,14.36c3.22,8.75,1.26,17.07-4.45,22.75-10.49,10.44-22.49,19.37-34,28.77-2.67,2.19-5.83,3.76-8.77,5.61L487,1168l62-4.85c-2-38.94,26.06-76.23,63.44-85.26,12.45-3,26.76,2.12,33.33,12,6.23,9.32,5.85,23.28-3.09,33.24C633.35,1133.41,622.37,1142.25,610.68,1153.1Z"/><path d="M310.51,1065.72c-7.48,1.72-15,3.41-22.43,5.15-21.09,4.92-42.08,10.26-63.28,14.61-12.32,2.53-20.38-2.27-23.69-12.1-2.92-8.67,1.93-18.76,13.07-23.14A413.43,413.43,0,0,1,258,1035.81c19.6-5.27,39.44-9.67,59.29-14,15.35-3.34,30.87-5.94,46.3-8.94,16.76-3.25,33.5-6.59,50.26-9.86,15.43-3,30.91-5.8,46.3-9,14.57-3,29.07-6.44,43.56-9.85,17.39-4.11,34.74-8.39,52.1-12.61,12.36-3,24.62-6.5,37.09-9,17-3.35,34.1-6.27,51.26-8.54,3.25-.43,9,2.29,10,4.91s-1.4,8.6-4.1,10.37c-11.66,7.6-23.23,16.57-36.21,20.68-32.71,10.37-66,19-99.37,27.15-29.45,7.18-59.29,12.81-89,19-13.27,2.74-26.65,4.92-39.91,7.7A15.89,15.89,0,0,0,378,1048c-14.51,14.66-28.67,29.66-43.17,44.32-28,28.29-53.75,58.32-74.87,92.19a45,45,0,0,1-8,9.18c-5.92,5.38-9.72,4.36-14.21-2.56-7-10.78-2.15-20.78,2.59-30,16.17-31.44,38.56-58.38,62.63-84,2.77-2.94,5.57-5.85,8.36-8.78C311.06,1067.46,310.79,1066.59,310.51,1065.72Z"/><path d="M1293,1112.29c15.72.9,29.76,1.57,43.77,2.6a26.4,26.4,0,0,1,9.16,2.69c6.29,3,7.81,8.58,2.71,13.42s-10.83,9.43-17.17,11.55c-25.61,8.56-52.06,9.81-77.62,1.14-21.76-7.39-28.38-28.41-17.79-49.24,12.22-24,32.27-37.6,58.41-41.93,9.77-1.61,19,1.33,25,10.28,4.66,7,3.94,19.3-2.41,26.82-5,6-11.28,10.86-17,16.22C1298,1107.78,1295.85,1109.68,1293,1112.29Z"/><path d="M724,1141.25c11.57,1.2,22.53,2.65,33.53,3.39,8.69.59,17.44.13,26.14.48,7.54.3,9.3,3.72,6.13,10.29-5.7,11.81-17.21,15.76-28.1,18.91-16.92,4.9-34.13,4.76-51.21-1.71-20.24-7.66-29.56-26.79-18.31-49.15,14.67-29.15,38.14-48.51,69.81-56.5,6.93-1.75,15.43.69,22.69,2.9,8.07,2.45,9.63,9.83,8.34,17.4-1.24,7.3-6.92,8.38-13.33,9.27-24.33,3.38-41.38,17.65-54.17,37.75C724.6,1135.72,724.71,1137.82,724,1141.25Z"/><path class="cls-1" d="M1098.4,1101.52c-6.57,11.67-14.64,21-28.88,22.06-3.18.24-6.53-1.7-9.8-2.63,1.14-3.17,1.54-7,3.56-9.4C1071.37,1101.79,1087.37,1097.23,1098.4,1101.52Z"/><path d="M685.2,614.79c-26.1,27-47.61,53.38-73.28,74.78-31.17,26-66.11,22.7-93.23-7.15-12.2-13.44-25.05-17.37-39.49-11.67-37.53,14.83-74.42,6.54-109.9-3.79-42.54-12.39-81.13-9-120.2,11.16-42.67,22.06-76.06,10.22-104.46-25.84-26.72-33.93-1.54-85.73,36.69-102.54,19.14-8.41,28.63-17.22,35.77-39,19.79-60.36,81-75.45,130.12-36.23,14.74,11.77,55.18,5.95,64.69-9.3,40.58-65.11,118.68-65.35,159.89-1,3.94,6.15,12.08,10.54,19.2,13.58,37.07,15.84,50.71,44.77,38.15,82.35-13,39-38.93,67-77,87.55,20.07,12.95,36.09,2.89,47.45-7.88,12.17-11.53,21.33-27.49,28.22-43.1,18.62-42.15,54.2-55.07,94.12-32,32.38,18.76,52,48,64.88,80.11,45.94-22.74,92.9-43.64,137.4-68.88,28.76-16.32,40.89-48,49.71-78.31,2.22-7.64-7.72-24.24-16.24-28.61-35.82-18.36-73.37-16.24-111.13-3.44-25.74,8.73-52.49,14.45-78.23,23.17-30.78,10.43-59.32,2.21-86.61-10-10.65-4.75-17.92-17.17-26.6-26.22-3.77-3.93-6.69-8.8-10.87-12.17-16.3-13.15-29.7-27.64-23.88-50.82,5.54-22,27.75-39.62,53.8-41.81,14.69-1.24,29.58-.23,48.22-.23-2.52,2.12-1.16,1.16,0,0,22.21-22.75,30.34-51.63,41-81,26.74-73.56,119.79-89.48,173.08-32.77,5.13,5.46,10,11.11,16.23,18,20.9-13.79,42.79-20.41,67.35-8.88,3.25,1.52,11.39-3.88,15.36-7.94,39.59-40.38,121.59-29.55,152.3,17.26,11.87,18.09,13.29,43,20.79,69.54,4,1.84,14,6.85,24.4,11.19,27.56,11.57,44.94,29.52,45.43,61.83.5,33.32-8,59-39.7,76.6-74.21,41.07-150.17,50.1-227.88,20.3l-37,95.51c29.23,24.81,50.33,68.09,104.5,67.07,7.69-7.08,18.8-21.16,33.18-29.84,44.71-27,91.47-13.31,114.12,33.53,7.58,15.67,16.84,23.73,33.24,29.34,25.76,8.81,48.33,23,50.59,55.2,1.91,27.26-9.44,48.08-32.39,59.75-12.14,6.17-30.14,9.06-42.58,4.83-35.94-12.19-71.12-14.47-106.44-1.6-31.45,11.46-62.94,7.93-92.61-1.57-30.67-9.81-54,10-81.21,12.16-11.79.93-27.29,3.53-35-2.48-14-10.92-33-28.31-32.11-41.89,1-16,20.52-31.11,32.65-46.08,7.75-9.56,17.45-17.58,24.9-27.34,12.15-15.94,23.18-32.73,35.81-50.79-20.1-26.71-29.59-29.35-65.33-15.26-43.38,17.11-79.33,44.52-112.47,77-64.3,63-19.81,193.92,44.93,216.9,42.46,15.07,71,45,89.11,94.1-28.21-1.34-53.34-3.09-78.49-3.49-12.43-.2-24.93,1.8-37.33,3.4-6.48.84-13.6,5.67-19.06,4.05-37.1-11-68.11,6.48-100.57,18.94-6.51,2.49-15.34-1.07-23.1-1.84,1.55-7.23.85-16.51,5.15-21.23,7.08-7.76,16.85-13.69,26.47-18.37,18.41-9,23-19.3,13.68-39.55-27.9-60.25-38.72-123.81-23-189.19,5.5-22.9,18.25-44.15,28.42-65.82C748.19,665.75,724.31,621,685.2,614.79Zm459.45-231.9-7.51-8c12.86-14.81,25.68-29.65,38.62-44.38,3.18-3.63,10.21-7.67,9.64-10.21-4.39-19.7-5.62-42.28-16.52-57.92-24.71-35.49-90.37-44.86-123-7.24-19.65,22.67-38.77,45.8-58.13,68.73l-2.48-1.2c8.05-19.52,16.1-39,27.65-67.05-17.81,4.27-30.85,5.64-42.33,10.6-13.05,5.64-24.7,14.5-38.7,23,7.87-29.86-21.43-62.78-59.38-70.41-37.79-7.59-88.56,35.73-96.31,83.62h34.22C771.78,324,736.33,347,723.87,395.3,708,364.21,667.83,359,648,382.36c-9.66,11.41-14,23.93,4.73,31.67,16.4,6.79,33,13.14,49.61,19.37,8.84,3.31,17.94,5.93,26.93,8.87-.1,2.66-.2,5.33-.31,8l-43,6.5c5,3.21,7.35,5.24,10,6.31,40.52,16.22,80.33,8.15,117.73-8.21,61.3-26.83,119.54-25.7,179.16,5.46,83,43.38,164.52,35.72,243.56-12.63,24.1-14.74,21.13-37.83,20.18-60.09-.83-19.49-15.47-27.81-31.48-34.54C1189.71,338.13,1164.17,351.51,1144.65,382.89ZM209.43,560.77c-4.41,1.8-12.22,4.49-19.57,8.11-22,10.81-39.28,30.81-34.62,52.58,3.54,16.6,23.43,34.22,40.37,42,12.57,5.75,33.74-.1,48.15-6.94,39.45-18.75,79.78-24.45,121.06-12,41.63,12.59,83.26,16.32,124.52,3.74,51.56-15.71,101.05-36,119.79-94.37,9.79-30.5-1.63-49.79-30.58-55.91-8.09,15.66-15.79,30.56-23.48,45.46,9.48-58.62-3.75-94.59-41.38-104.34s-76,12.24-86.81,47.82l35.4,28.15-6.52,4.62c-23.46-6.74-46.86-18.58-70.38-18.81-23.93-.24-48,11-78.28,18.78l25.4-29.26c-34-28-62.16-15.59-85.57,4.08C222.22,515.23,227.32,543.32,258.6,595Zm850.75,119.34c-17.25-17.07-38.36-21.73-56.49-8-17,12.87-29,32.52-43.05,49.26-6.38,7.58-11.55,20.6-19,22-18.27,3.44-31.56,9.88-28,29.63s19,21.11,36.78,18.06c34.74-6,68.9-19.35,105.35-6.93a84.54,84.54,0,0,0,39,3.35c49-7.76,97-18.74,147.34-3,30.5,9.55,55.46-18.45,43.68-48.24-5.15-13-22.76-22.72-36.82-29.62-4.91-2.41-16.61,7.51-24.43,12.92-10.07,7-19.36,15.1-29,22.72,13.54-24.89,23.84-47,11.93-73.74-11.14-25-32.26-36.56-58.06-35.44-27.31,1.18-45.79,17.61-55.72,42.94l23.26,10-83.32,18.47-2-4Z"/><path d="M443.86,583.39c-17.64,28.68-40.72,39-67.08,29.49-19.17-6.89-31-21-28.87-44.56C374.38,603.75,397.3,607.77,443.86,583.39Z"/></svg>