<svg width="331" height="331" viewBox="0 0 331 331" fill="none" xmlns="http://www.w3.org/2000/svg">
<path d="M175.514 281.868C179.167 282.948 182.408 283.896 185.645 284.87C186.555 285.137 187.45 285.45 188.328 285.81C189.329 286.226 189.492 287.543 188.548 288.105C187.801 288.546 186.899 288.987 186.059 288.987C180.904 289.059 175.73 289.273 170.6 288.907C167.625 288.687 164.678 287.609 161.798 286.672C160.01 286.09 159.303 284.43 159.397 282.628C159.494 280.748 160.44 279.434 162.347 278.75C165.923 277.471 169.374 275.802 173.003 274.729C176.566 273.713 180.2 272.962 183.874 272.482C190.515 271.552 197.189 270.818 203.858 270.11C206.587 269.821 209.343 269.814 212.104 269.393C211.107 269.316 210.119 269.135 209.116 269.173C199.583 269.587 190.047 270.004 180.516 270.496C176.327 270.716 172.138 271.142 167.949 271.442C162.863 271.803 157.764 272.024 152.686 272.502C145.887 273.139 139.103 273.97 132.31 274.707C128.977 275.07 125.628 275.335 122.305 275.785C117.455 276.446 112.604 277.218 107.754 277.965C105.805 278.265 103.867 278.627 101.92 278.957C98.7982 279.478 95.683 280.097 92.5412 280.441C91.4389 280.562 90.1667 280.177 89.1173 279.705C87.9598 279.187 87.9378 277.981 88.6256 277.099C89.3135 276.217 90.191 275.284 91.1787 274.973C95.2023 273.704 99.2678 272.535 103.377 271.583C107.271 270.681 111.235 270.077 115.175 269.378C117.239 269.01 119.307 268.657 121.383 268.406C126.795 267.747 132.211 267.124 137.63 266.536C144.723 265.77 151.82 265.035 158.919 264.331C162.859 263.943 166.805 263.593 170.756 263.339C177.106 262.929 183.455 262.473 189.814 262.287C201.093 261.959 212.381 261.653 223.665 261.67C229.838 261.67 236.012 262.239 242.008 263.97C245.042 264.852 246.574 266.589 246.493 269.204C246.42 271.521 244.625 273.534 241.642 273.97C234.894 274.954 228.125 275.84 221.341 276.539C212.633 277.436 203.895 278.049 195.182 278.911C190.178 279.407 185.195 280.122 180.212 280.807C178.746 281.03 177.309 281.464 175.514 281.868Z" fill="white"/>
<path d="M214.796 250.876L225.652 250.022C225.056 242.952 228.386 238.703 234.292 236.305C237.82 234.869 241.493 233.924 245.095 236.428C245.536 236.728 246.372 236.58 246.985 236.448C250.345 235.727 252.752 238.236 251.639 241.473C251.235 242.645 251.639 243.426 252.441 243.957C254.723 245.456 257.071 246.843 259.43 248.239C259.911 248.523 260.484 248.651 261.247 248.94C260.647 242.145 262.195 235.789 264.578 229.302C263.822 229.252 263.207 229.168 262.594 229.177C261.154 229.197 259.71 229.347 258.275 229.285C255.654 229.17 254.139 227.479 254.43 225.144C254.692 223.059 256.99 221.617 259.254 221.875C261.743 222.166 264.257 222.298 266.763 222.353C267.248 222.364 267.89 221.8 268.218 221.33C269.321 219.767 270.234 218.067 271.376 216.535C272.147 215.47 273.074 214.527 274.125 213.737C275.781 212.529 277.747 212.661 278.918 213.812C279.864 214.74 279.983 216.773 279.09 218.347C278.237 219.851 277.291 221.301 276.224 223.052C277.015 223.462 277.835 223.766 278.512 224.267C279.189 224.767 280.307 225.521 280.276 226.119C280.243 226.884 279.41 227.924 278.653 228.279C277.062 229.027 275.276 229.347 273.616 229.966C272.994 230.187 272.235 230.652 271.984 231.207C269.878 235.843 268.493 240.773 267.874 245.827C267.676 247.432 267.46 249.063 266.977 250.596C266.757 251.323 265.956 252.238 265.282 252.373C264.42 252.54 263.339 252.152 262.508 251.711C261.886 251.385 261.509 250.591 261.016 249.994C257.929 253.118 253.211 253.667 249.331 251.142C247.587 250.009 246.63 249.985 245.003 251.5C240.681 255.519 235.692 256.932 229.982 254.275C229.283 253.951 228.046 254.174 227.336 254.599C221.192 258.222 214.707 259.196 207.807 257.395C207.46 257.302 207.126 257.164 206.815 256.985C204.762 255.801 202.736 254.694 200.328 254.187C198.055 253.707 197.403 250.902 199.283 249.619C201.126 248.362 202.061 246.806 202.687 244.833C202.908 244.171 203.313 243.547 203.752 242.672C203.175 242.61 202.65 242.41 202.209 242.524C198.121 243.585 193.924 244.383 190.008 245.897C186.809 247.134 184.8 249.769 184.717 253.539C184.666 255.587 183.687 257.258 181.63 257.986C180.069 258.539 178.512 257.942 177.864 256.645C177.167 255.164 176.849 253.532 176.938 251.896C177.042 249.956 177.633 248.021 178.188 246.133C179.183 242.762 180.241 239.407 181.405 236.091C181.943 234.547 183.268 233.919 184.878 234.142C186.487 234.364 187.226 235.438 187.369 236.988C187.472 238.115 187.988 238.13 188.967 237.802C192.426 236.633 195.908 235.597 199.649 235.729C202.165 235.824 204.471 236.3 206.552 237.815C206.953 238.106 207.875 238 208.4 237.749C210.545 236.724 212.562 235.41 214.754 234.508C217.964 233.185 221.494 234.905 222.651 238.117C223.332 240.009 222.735 241.832 221.666 243.21C220.034 245.313 217.993 247.101 216.101 248.999C215.627 249.428 215.129 249.828 214.608 250.199C214.657 250.43 214.727 250.653 214.796 250.876ZM242.167 242.855C239.742 241.909 236.215 242.914 234.424 245.06C233.983 245.598 233.891 246.433 233.639 247.132C234.36 247.337 235.099 247.765 235.8 247.712C238.94 247.48 240.719 245.428 242.167 242.855Z" fill="white"/>
<path d="M134.638 254.227C137.538 254.07 140.282 254.044 142.994 253.735C144.802 253.528 146.546 252.805 148.354 252.554C149.062 252.454 149.86 253.01 150.744 253.312C147.523 257.962 143.146 259.73 138.311 260.863C134.427 261.774 130.615 261.966 126.774 260.799C126.487 260.713 126.113 260.722 125.925 260.539C124.106 258.839 122.563 259.961 120.892 260.879C114.406 264.492 106.91 265.869 99.5634 264.799C94.6115 264.115 92.2503 258.91 94.4506 254.256C94.7967 253.521 95.0944 252.767 95.4604 251.916C87.0427 252.776 79.4937 254.86 74.5155 262.23C73.5123 263.716 72.3107 265.096 70.2383 265.158C66.9863 265.27 65.0748 262.188 66.8298 258.83C69.3961 253.925 72.3769 249.231 75.3092 244.524C75.8736 243.622 76.9429 242.93 77.9218 242.414C80.4484 241.091 82.3974 242.348 82.4635 245.23C82.4635 245.626 82.5407 246.025 82.5958 246.552C84.1501 246.208 85.6096 245.97 87.0163 245.556C90.9671 244.394 94.6799 244.722 98.2119 246.969C98.5801 247.205 99.5722 246.949 99.9624 246.585C102.632 244.092 105.622 242.152 109.136 241.129C112.651 240.106 116.452 240.961 117.675 244.295C118.385 246.224 117.953 248.058 116.694 249.31C114.381 251.612 111.736 253.581 109.198 255.653C108.609 256.136 107.913 256.482 107.264 256.89L107.37 257.512L121.04 256.443C120.599 247.858 126.785 239.636 135.026 237.645C137.771 236.984 140.926 238.113 142.375 240.291C143.748 242.346 143.665 245.424 141.693 247.619C139.636 249.886 137.216 251.835 134.638 254.227Z" fill="white"/>
<path d="M68.4589 234.962C66.8098 235.341 65.1518 235.714 63.5137 236.098C58.8639 237.182 54.2362 238.36 49.5622 239.319C46.846 239.877 45.069 238.818 44.3392 236.651C43.6954 234.74 44.7647 232.515 47.2208 231.549C50.3794 230.31 53.6048 229.248 56.8819 228.368C61.2031 227.206 65.5773 226.236 69.9537 225.281C73.338 224.545 76.7597 223.972 80.1616 223.31C83.8567 222.594 87.5474 221.857 91.2425 221.136C94.6444 220.475 98.0573 219.858 101.45 219.152C104.663 218.491 107.86 217.732 111.054 216.98C114.888 216.074 118.713 215.131 122.541 214.2C125.266 213.539 127.969 212.767 130.718 212.216C134.466 211.477 138.236 210.834 142.02 210.333C142.736 210.238 144.004 210.838 144.224 211.416C144.445 211.993 143.916 213.312 143.32 213.702C140.75 215.378 138.199 217.355 135.337 218.261C128.125 220.548 120.786 222.45 113.429 224.247C106.936 225.83 100.357 227.071 93.8066 228.436C90.881 229.04 87.931 229.521 85.0076 230.134C84.3767 230.281 83.799 230.6 83.3386 231.055C80.1395 234.288 77.0176 237.595 73.8208 240.827C67.6476 247.064 61.9704 253.685 57.314 261.152C56.8205 261.904 56.2271 262.584 55.5502 263.176C54.245 264.362 53.4072 264.137 52.4173 262.612C50.874 260.235 51.9433 258.03 52.9883 255.998C56.5534 249.066 61.4898 243.126 66.7965 237.478C67.4072 236.83 68.0246 236.188 68.6397 235.542C68.5802 235.346 68.5206 235.154 68.4589 234.962Z" fill="white"/>
<path d="M285.071 245.23C288.537 245.428 291.633 245.576 294.721 245.803C295.425 245.876 296.109 246.077 296.741 246.396C298.128 247.057 298.463 248.288 297.339 249.355C296.214 250.422 294.951 251.434 293.553 251.901C287.907 253.788 282.075 254.064 276.44 252.152C271.642 250.523 270.183 245.889 272.518 241.296C275.212 236.005 279.632 233.007 285.395 232.052C287.55 231.697 289.584 232.345 290.907 234.318C291.935 235.862 291.776 238.574 290.376 240.231C289.274 241.554 287.889 242.626 286.628 243.808C286.174 244.235 285.7 244.654 285.071 245.23Z" fill="white"/>
<path d="M159.622 251.614C162.173 251.879 164.59 252.199 167.015 252.362C168.931 252.492 170.86 252.39 172.778 252.468C174.44 252.534 174.828 253.288 174.13 254.736C172.873 257.34 170.335 258.211 167.934 258.905C164.204 259.986 160.41 259.955 156.644 258.528C152.181 256.84 150.127 252.622 152.607 247.692C155.841 241.265 161.016 236.997 167.998 235.236C169.526 234.85 171.4 235.388 173.001 235.875C174.78 236.415 175.124 238.042 174.839 239.711C174.566 241.321 173.314 241.559 171.901 241.755C166.536 242.5 162.777 245.646 159.958 250.078C159.755 250.395 159.779 250.858 159.622 251.614Z" fill="white"/>
<path d="M151.068 135.544C145.314 141.497 140.571 147.313 134.912 152.031C128.04 157.764 120.336 157.036 114.357 150.455C111.667 147.492 108.834 146.625 105.651 147.882C97.3762 151.152 89.243 149.324 81.4206 147.047C72.0417 144.315 63.5337 145.062 54.9198 149.507C45.5122 154.371 38.1506 151.76 31.8892 143.81C25.9982 136.329 31.5497 124.909 39.9784 121.203C44.1982 119.349 46.2905 117.406 47.8647 112.604C52.2278 99.2966 65.723 95.9696 76.5526 104.617C79.8023 107.212 88.7183 105.928 90.815 102.566C99.7617 88.2112 116.981 88.1583 126.066 102.346C126.935 103.702 128.73 104.669 130.299 105.34C138.472 108.832 141.48 115.21 138.71 123.496C135.844 132.094 130.127 138.267 121.734 142.798C126.159 145.653 129.691 143.435 132.195 141.061C134.879 138.519 136.898 135 138.417 131.558C142.522 122.265 150.367 119.417 159.168 124.503C166.307 128.639 170.633 135.086 173.472 142.165C183.601 137.152 193.954 132.544 203.765 126.979C210.106 123.381 212.78 116.396 214.725 109.714C215.214 108.029 213.023 104.37 211.145 103.406C203.247 99.3583 194.968 99.8257 186.643 102.648C180.968 104.572 175.071 105.834 169.396 107.756C162.61 110.056 156.317 108.243 150.301 105.551C147.953 104.504 146.35 101.766 144.436 99.7706C143.605 98.9041 142.961 97.8304 142.04 97.0874C138.446 94.1882 135.492 90.9936 136.775 85.883C137.996 81.0326 142.893 77.1479 148.636 76.6651C151.875 76.3917 155.158 76.6143 159.267 76.6143C158.712 77.0817 159.012 76.8701 159.267 76.6143C164.164 71.5986 165.956 65.2313 168.307 58.7561C174.202 42.5381 194.717 39.0282 206.466 51.5312C207.597 52.735 208.671 53.9806 210.044 55.4997C214.652 52.4594 219.478 50.9998 224.893 53.5419C225.61 53.877 227.404 52.6865 228.28 51.7913C237.008 42.8886 255.087 45.2764 261.858 55.5967C264.475 59.585 264.788 65.077 266.441 70.9284C267.323 71.334 269.528 72.4386 271.821 73.3954C277.897 75.9463 281.729 79.9038 281.837 87.0273C281.947 94.3734 280.073 100.035 273.084 103.915C256.723 112.97 239.976 114.961 222.843 108.391L214.685 129.448C221.13 134.918 225.782 144.46 237.725 144.236C239.42 142.675 241.87 139.57 245.04 137.657C254.897 131.704 265.207 134.722 270.2 145.049C271.872 148.504 273.913 150.281 277.529 151.518C283.208 153.46 288.184 156.589 288.683 163.688C289.104 169.698 286.601 174.288 281.541 176.861C278.865 178.221 274.896 178.859 272.154 177.926C264.23 175.238 256.474 174.736 248.687 177.573C241.753 180.1 234.81 179.322 228.269 177.227C221.507 175.064 216.363 179.432 210.364 179.908C207.765 180.113 204.347 180.686 202.648 179.361C199.561 176.954 195.372 173.12 195.568 170.126C195.789 166.598 200.092 163.267 202.767 159.966C204.475 157.859 206.614 156.09 208.256 153.938C210.935 150.424 213.367 146.722 216.151 142.741C211.72 136.852 209.628 136.27 201.748 139.376C192.184 143.149 184.258 149.192 176.951 156.353C162.775 170.242 172.584 199.107 186.857 204.173C196.219 207.496 202.511 214.094 206.504 224.92C200.284 224.624 194.744 224.238 189.199 224.15C186.458 224.106 183.702 224.547 180.968 224.9C179.54 225.085 177.97 226.15 176.766 225.793C168.587 223.368 161.75 227.221 154.593 229.968C153.158 230.517 151.211 229.733 149.5 229.563C149.842 227.969 149.688 225.923 150.636 224.882C152.197 223.171 154.351 221.864 156.472 220.832C160.531 218.848 161.543 216.577 159.488 212.112C153.337 198.829 150.951 184.816 154.417 170.401C155.63 165.352 158.441 160.667 160.683 155.89C164.956 146.78 159.691 136.914 151.068 135.544ZM252.364 84.4169L250.708 82.6531C253.544 79.3879 256.37 76.1161 259.223 72.8685C259.924 72.0682 261.474 71.1775 261.348 70.6175C260.381 66.2742 260.109 61.2959 257.706 57.8477C252.258 50.0231 237.782 47.9573 230.588 56.2515C226.256 61.2496 222.04 66.3491 217.772 71.4046L217.225 71.14C219 66.8364 220.775 62.5416 223.321 56.3573C219.395 57.2987 216.52 57.6008 213.989 58.6943C211.111 59.9378 208.543 61.8912 205.456 63.7652C207.191 57.1819 200.732 49.9239 192.365 48.2417C184.033 46.5683 172.84 56.1192 171.131 66.6776H178.676C170.156 71.4332 162.341 76.5041 159.594 87.1529C156.095 80.2984 147.238 79.1498 142.866 84.3C140.737 86.8156 139.78 89.5759 143.909 91.2824C147.525 92.7794 151.185 94.1794 154.847 95.5529C156.796 96.2827 158.802 96.8603 160.784 97.5085C160.762 98.095 160.74 98.6837 160.716 99.2723L151.235 100.705C152.338 101.413 152.856 101.861 153.44 102.097C162.374 105.673 171.151 103.893 179.396 100.286C192.911 94.3712 205.752 94.6203 218.896 101.49C237.196 111.054 255.169 109.366 272.595 98.7057C277.908 95.4559 277.253 90.3652 277.044 85.4575C276.861 81.1605 273.633 79.3262 270.103 77.8424C262.299 74.5485 256.668 77.4984 252.364 84.4169ZM46.1736 123.635C45.2014 124.031 43.4795 124.624 41.859 125.423C37.0086 127.806 33.1988 132.215 34.2262 137.015C35.0067 140.675 39.3919 144.56 43.1267 146.275C45.8981 147.543 50.5655 146.253 53.7425 144.745C62.4401 140.611 71.3318 139.354 80.4329 142.099C89.6112 144.875 98.7895 145.697 107.886 142.924C119.254 139.46 130.165 134.987 134.297 122.118C136.455 115.393 133.937 111.14 127.555 109.791C125.771 113.244 124.073 116.529 122.378 119.814C124.468 106.89 121.551 98.9592 113.255 96.8096C104.958 94.66 96.4987 99.5082 94.1154 107.353L101.92 113.559L100.483 114.578C95.3104 113.092 90.1513 110.481 84.9658 110.43C79.6899 110.378 74.3831 112.856 67.7072 114.571L73.3072 108.12C65.8111 101.947 59.6026 104.683 54.4414 109.019C48.9935 113.594 50.1179 119.787 57.0143 131.181L46.1736 123.635ZM233.741 149.946C229.938 146.182 225.283 145.155 221.286 148.182C217.538 151.019 214.893 155.352 211.795 159.042C210.388 160.714 209.248 163.584 207.606 163.893C203.578 164.651 200.648 166.071 201.433 170.425C202.218 174.78 205.622 175.08 209.542 174.407C217.201 173.084 224.732 170.141 232.769 172.879C235.537 173.795 238.482 174.048 241.367 173.618C252.17 171.907 262.753 169.486 273.851 172.956C280.576 175.062 286.079 168.889 283.482 162.321C282.346 159.455 278.464 157.312 275.364 155.79C274.281 155.259 271.702 157.446 269.978 158.639C267.758 160.182 265.709 161.968 263.584 163.648C266.569 158.161 268.84 153.286 266.214 147.39C263.758 141.879 259.102 139.33 253.414 139.577C247.392 139.837 243.318 143.459 241.129 149.044L246.257 151.249L227.887 155.321L227.446 154.439L233.741 149.946Z" fill="white"/>
<path d="M97.8584 128.622C93.9693 134.945 88.8808 137.22 83.0691 135.123C78.8426 133.604 76.2345 130.493 76.7041 125.299C82.54 133.11 87.5932 133.997 97.8584 128.622Z" fill="white"/>
</svg>
