<svg id="Layer_1" data-name="Layer 1" xmlns="http://www.w3.org/2000/svg" viewBox="0 0 1501.32 1501.32"><path d="M716.85,784.59c-30.26,31.32-55.22,61.91-85,86.74-36.15,30.15-76.68,26.33-108.14-8.3-14.15-15.58-29.05-20.15-45.79-13.53-43.54,17.2-86.33,7.59-127.48-4.4-49.34-14.37-94.1-10.47-139.41,12.95-49.5,25.58-88.22,11.85-121.17-30-31-39.35-1.79-99.43,42.56-118.93,22.2-9.76,33.21-20,41.48-45.2,23-70,94-87.51,150.93-42,17.09,13.65,64,6.9,75-10.79,47.06-75.51,137.65-75.8,185.45-1.16,4.57,7.14,14,12.23,22.27,15.76,43,18.36,58.82,51.92,44.25,95.51-15.13,45.26-45.16,77.73-89.3,101.54,23.29,15,41.86,3.36,55-9.14,14.12-13.37,24.74-31.88,32.74-50,21.59-48.88,62.86-63.86,109.15-37,37.57,21.75,60.31,55.65,75.26,92.92C888,793.13,942.49,768.9,994.1,739.62c33.35-18.93,47.42-55.63,57.65-90.83,2.58-8.85-9-28.11-18.83-33.18-41.55-21.3-85.1-18.84-128.9-4-29.85,10.12-60.88,16.76-90.74,26.87-35.7,12.1-68.8,2.56-100.45-11.55C700.47,621.43,692,607,682,596.52c-4.36-4.55-7.76-10.2-12.6-14.11-18.9-15.25-34.46-32-27.7-58.94,6.42-25.54,32.19-46,62.4-48.5,17-1.44,34.31-.26,55.92-.26-2.91,2.45-1.33,1.34,0,0,25.77-26.4,35.2-59.89,47.56-93.93,31-85.32,139-103.78,200.75-38,6,6.34,11.66,12.9,18.82,20.83,24.25-16,49.64-23.67,78.13-10.3,3.76,1.77,13.2-4.5,17.82-9.21,45.91-46.84,141-34.28,176.64,20,13.77,21,15.41,49.92,24.11,80.66,4.62,2.13,16.3,7.94,28.3,13,32,13.41,52.13,34.23,52.7,71.72.58,38.64-9.25,68.47-46.06,88.84-86.07,47.63-174.17,58.1-264.3,23.54l-43,110.79c33.91,28.77,58.38,79,121.21,77.78,8.91-8.21,21.81-24.54,38.49-34.61,51.85-31.28,106.08-15.44,132.36,38.89,8.79,18.18,19.53,27.53,38.56,34,29.88,10.21,56.05,26.63,58.67,64,2.22,31.62-10.94,55.77-37.56,69.3-14.08,7.15-35,10.5-49.39,5.61-41.68-14.15-82.49-16.79-123.46-1.86-36.48,13.29-73,9.19-107.41-1.82-35.58-11.39-62.68,11.61-94.2,14.1-13.68,1.08-31.65,4.09-40.56-2.88C972,1002.51,950,982.35,950.94,966.6c1.17-18.57,23.79-36.08,37.87-53.45,9-11.08,20.24-20.39,28.87-31.71,14.1-18.48,26.89-38,41.54-58.91-23.31-31-34.31-34-75.77-17.7-50.32,19.84-92,51.64-130.45,89.28-74.58,73-23,224.93,52.12,251.58,49.24,17.48,82.32,52.22,103.35,109.14-32.72-1.55-61.87-3.58-91-4-14.41-.23-28.92,2.09-43.3,3.94-7.52,1-15.78,6.58-22.1,4.7-43-12.76-79,7.52-116.66,22-7.54,2.9-17.78-1.24-26.78-2.13,1.79-8.38,1-19.15,6-24.62,8.21-9,19.54-15.88,30.69-21.31,21.36-10.39,26.74-22.38,15.87-45.87-32.35-69.89-44.9-143.61-26.7-219.43,6.38-26.57,21.18-51.22,33-76.35C789.91,843.69,762.22,791.8,716.85,784.59Zm532.91-269-8.72-9.28c14.92-17.17,29.78-34.38,44.79-51.47,3.7-4.21,11.85-8.89,11.19-11.84-5.09-22.85-6.52-49-19.16-67.18-28.67-41.16-104.82-52-142.65-8.39-22.8,26.29-45,53.12-67.42,79.71l-2.88-1.4c9.33-22.63,18.66-45.26,32.07-77.76-20.67,4.95-35.78,6.54-49.1,12.3-15.13,6.54-28.65,16.81-44.89,26.69,9.14-34.63-24.86-72.82-68.87-81.66-43.83-8.8-102.72,41.44-111.7,97H862.1c-44.83,25-86,51.7-100.39,107.69-18.42-36.06-65-42.14-88-15-11.2,13.24-16.21,27.76,5.49,36.74,19,7.87,38.25,15.24,57.53,22.46C747,578,757.58,581.08,768,584.49c-.12,3.09-.23,6.18-.35,9.27L717.8,601.3c5.84,3.72,8.51,6.07,11.62,7.32,47,18.81,93.17,9.45,136.55-9.53,71.11-31.11,138.66-29.81,207.81,6.34,96.23,50.31,190.81,41.42,282.5-14.65,28-17.1,24.5-43.89,23.4-69.7-1-22.6-17.94-32.25-36.51-40.07C1302,463.7,1272.4,479.22,1249.76,515.61ZM165,721.93c-5.11,2.1-14.17,5.21-22.7,9.41-25.48,12.54-45.56,35.73-40.16,61C106.28,811.58,129.35,832,149,841c14.58,6.67,39.13-.11,55.85-8,45.76-21.74,92.53-28.35,140.41-13.88,48.29,14.6,96.57,18.93,144.44,4.34,59.79-18.22,117.19-41.79,138.93-109.46,11.36-35.37-1.89-57.74-35.47-64.85l-27.23,52.73c11-68-4.35-109.71-48-121-43.47-11.27-88.18,14.2-100.69,55.46l41.06,32.66-7.56,5.35c-27.2-7.82-54.35-21.54-81.63-21.81-27.75-.27-55.63,12.71-90.8,21.78l29.47-33.94c-39.42-32.5-72.1-18.08-99.25,4.73-28.67,24.09-22.74,56.66,13.53,116.55Zm986.76,138.43c-20-19.81-44.5-25.21-65.52-9.32-19.76,14.93-33.59,37.71-49.93,57.13-7.4,8.8-13.4,23.9-22,25.52-21.19,4-36.61,11.46-32.54,34.36s22.07,24.49,42.66,21c40.3-6.92,79.93-22.44,122.2-8a98,98,0,0,0,45.19,3.89c56.88-9,112.51-21.74,170.89-3.47,35.38,11.08,64.33-21.4,50.66-55.94-6-15.08-26.39-26.36-42.7-34.36-5.7-2.79-19.27,8.71-28.34,15-11.68,8.1-22.45,17.51-33.62,26.35,15.7-28.87,27.65-54.52,13.84-85.54-12.92-29-37.42-42.4-67.35-41.1-31.67,1.37-53.11,20.43-64.62,49.81l27,11.66-96.65,21.41q-1.12-2.31-2.27-4.62Z"/><path d="M436.93,748.17c-20.46,33.27-47.23,45.18-77.81,34.2-22.23-8-35.91-24.3-33.48-51.68C356.34,771.78,382.93,776.44,436.93,748.17Z"/></svg>