<?xml version="1.0" encoding="utf-8"?>
<!-- Generator: Adobe Illustrator 24.3.0, SVG Export Plug-In . SVG Version: 6.00 Build 0)  -->
<svg version="1.1" id="Layer_1" xmlns="http://www.w3.org/2000/svg" xmlns:xlink="http://www.w3.org/1999/xlink" x="0px" y="0px"
	 viewBox="0 0 2491.8 2491.8" style="enable-background:new 0 0 2491.8 2491.8;" xml:space="preserve">
<path d="M2388,591.3H440.9l-28.9-322.4c-4.7-52.7-48.9-93.1-101.9-93.1H102.3C45.8,175.7,0,221.5,0,278s45.8,102.3,102.3,102.3
	h114.3c62.5,695.9-99-1102.7,117.6,1310.5c8.3,94.5,59.4,196.9,147.3,266.6c-158.5,202.4-13.7,500.8,244.2,500.8
	c214,0,364.9-213.4,291.6-415.6H1577c-73.3,201.9,77.3,415.6,291.6,415.6c171,0,310.1-139.1,310.1-310.1s-139.1-310.1-310.1-310.1
	H726.4c-77.7,0-145.4-46.9-174.6-115.2l1634.5-96.1c44.6-2.6,82.4-33.9,93.2-77.3l207.8-831.2C2503.4,653.9,2454.6,591.3,2388,591.3
	L2388,591.3z M725.7,2253.7c-58.2,0-105.5-47.3-105.5-105.5c0-58.2,47.3-105.5,105.5-105.5c58.2,0,105.5,47.3,105.5,105.5
	C831.2,2206.3,783.8,2253.7,725.7,2253.7z M1868.5,2253.7c-58.2,0-105.5-47.3-105.5-105.5c0-58.2,47.3-105.5,105.5-105.5
	s105.5,47.3,105.5,105.5C1974.1,2206.3,1926.7,2253.7,1868.5,2253.7z M2099.2,1427.1l-1575,92.6l-65-723.8H2257L2099.2,1427.1z"/>
</svg>
