<?xml version="1.0" encoding="utf-8"?>
<!-- Generator: Adobe Illustrator 24.3.0, SVG Export Plug-In . SVG Version: 6.00 Build 0)  -->
<svg version="1.1" id="Layer_1" xmlns="http://www.w3.org/2000/svg" xmlns:xlink="http://www.w3.org/1999/xlink" x="0px" y="0px"
	 viewBox="0 0 512 512" style="enable-background:new 0 0 512 512;" xml:space="preserve">
<style type="text/css">
	.st0{fill:#37474F;}
	.st1{fill:#CFD8DC;}
	.st2{fill:#9E9E9E;}
	.st3{fill:#707070;}
	.st4{fill:#F44335;}
	.st5{fill:#C81E1E;}
	.st6{fill:#00BCD4;}
	.st7{fill:#00838F;}
	.st8{fill:#FFEB3A;}
	.st9{fill:#FFFFFF;}
	.st10{opacity:0.2;enable-background:new    ;}
</style>
<g id="Page-1">
	<g id="_091---Deliver-Produce">
		<path id="Shape" class="st0" d="M170.7,415.8c0.4,33-26,60.1-59,60.5s-60.1-26-60.5-59c0-0.5,0-1,0-1.5c0-2.9,0.2-5.7,0.7-8.5
			c4.7-32.6,34.9-55.2,67.6-50.5c26.2,3.8,46.8,24.3,50.5,50.5C170.5,410.1,170.7,413,170.7,415.8z"/>
		<circle id="Oval" class="st1" cx="110.9" cy="415.8" r="17.1"/>
		<path id="Shape-2" class="st0" d="M460.8,415.8c0.4,33-26,60.1-59,60.5s-60.1-26-60.5-59c0-0.5,0-1,0-1.5c0-2.9,0.2-5.7,0.7-8.5
			c4.7-32.6,34.9-55.2,67.6-50.5c26.2,3.8,46.8,24.3,50.5,50.5C460.6,410.1,460.8,413,460.8,415.8z"/>
		<circle id="Oval-2" class="st1" cx="401.1" cy="415.8" r="17.1"/>
		<path id="Shape-3" class="st2" d="M503.5,381.7c0,14.1-11.5,25.6-25.6,25.6l0,0h-17.8c-4.2-29.4-29.4-51.2-59-51.2h76.8
			C492,356.1,503.5,367.6,503.5,381.7L503.5,381.7z"/>
		<path id="Shape-4" class="st3" d="M477.9,356.1h-25.6c14.1-0.1,25.6,11.3,25.6,25.4c0,11.2-7.3,21.2-18,24.5
			c0.1,0.4,0.2,0.9,0.2,1.3h17.8c14.1,0,25.6-11.5,25.6-25.6S492,356.1,477.9,356.1L477.9,356.1z"/>
		<path id="Shape-5" class="st2" d="M110.9,356.1c-29.7,0-54.8,21.8-59,51.2h-9.3c-14.1,0-25.6-11.5-25.6-25.6s11.5-25.6,25.6-25.6
			H110.9z"/>
		<path id="Shape-6" class="st2" d="M401.1,356.1c-29.7-0.1-54.9,21.8-59.1,51.2h-43.3c0-9.4-7.7-17-17.1-17.1h-51.2
			c-9.4,0.1-17,7.7-17.1,17.1H170c-4.2-29.4-29.3-51.2-59-51.2H401.1z"/>
		<path id="Shape-7" class="st4" d="M332.8,66v290.1H25.6c-9.4,0-17.1-7.7-17.1-17.1V66c0-9.4,7.6-17.1,17.1-17.1h290.1
			C325.2,48.9,332.8,56.6,332.8,66z"/>
		<path id="Shape-8" class="st4" d="M477.9,219.6v136.5H332.8V134.2H384v68.3c0,9.4,7.7,17,17.1,17.1L477.9,219.6z"/>
		<path id="Rectangle-path" class="st5" d="M452.3,219.6h25.6v136.5h-25.6V219.6z"/>
		<path id="Shape-9" class="st6" d="M477.9,194v25.6h-76.8c-9.4,0-17.1-7.7-17.1-17.1v-68.3h34.1C451.1,134.2,477.9,161,477.9,194
			C477.9,194,477.9,194,477.9,194z"/>
		<path id="Shape-10" class="st7" d="M418.1,134.2h-25.6c33,0,59.7,26.7,59.7,59.7c0,0,0,0,0,0v25.6h25.6V194
			C477.9,161,451.1,134.3,418.1,134.2C418.1,134.2,418.1,134.2,418.1,134.2z"/>
		<path id="Shape-11" class="st8" d="M460.8,287.8h17.1V322h-17.1c-9.4,0-17.1-7.6-17.1-17.1S451.4,287.9,460.8,287.8L460.8,287.8z"
			/>
		<path id="Shape-12" class="st1" d="M298.7,407.3c-0.1,9.4-7.7,17-17.1,17.1h-51.2c-9.4,0-17.1-7.6-17.1-17.1s7.6-17.1,17.1-17.1
			h51.2C291,390.3,298.6,397.9,298.7,407.3z"/>
		<rect x="8.5" y="163.8" class="st9" width="324.3" height="77.4"/>
		<rect x="90.8" y="48.9" class="st9" width="74.4" height="307.2"/>
		<path id="Shape-13" class="st10" d="M315.7,48.9h-25.6c9.4,0,17.1,7.7,17.1,17.1v290.1h25.6V66C332.8,56.6,325.2,48.9,315.7,48.9z
			"/>
		<path id="Shape-14" d="M136.5,415.8c0-14.1-11.5-25.6-25.6-25.6c-14.1,0-25.6,11.5-25.6,25.6c0,14.1,11.5,25.6,25.6,25.6
			C125.1,441.5,136.5,430,136.5,415.8C136.5,415.8,136.5,415.8,136.5,415.8z M102.4,415.8c0-4.7,3.8-8.5,8.5-8.5
			c4.7,0,8.5,3.8,8.5,8.5s-3.8,8.5-8.5,8.5c0,0,0,0,0,0C106.2,424.4,102.4,420.6,102.4,415.8C102.4,415.8,102.4,415.8,102.4,415.8z"
			/>
		<path id="Shape-15" d="M401.1,441.5c14.1,0,25.6-11.5,25.6-25.6s-11.5-25.6-25.6-25.6s-25.6,11.5-25.6,25.6c0,0,0,0,0,0
			C375.5,430,386.9,441.4,401.1,441.5z M401.1,407.3c4.7,0,8.5,3.8,8.5,8.5c0,4.7-3.8,8.5-8.5,8.5c-4.7,0-8.5-3.8-8.5-8.5
			c0,0,0,0,0,0C392.5,411.1,396.3,407.3,401.1,407.3C401.1,407.3,401.1,407.3,401.1,407.3z"/>
		<path id="Shape-17" d="M392.5,279.3h25.6c4.7,0.2,8.7-3.5,8.8-8.2s-3.5-8.7-8.2-8.8c-0.2,0-0.4,0-0.6,0h-25.6
			c-4.7,0.2-8.4,4.1-8.2,8.8C384.4,275.6,388,279.2,392.5,279.3z"/>
	</g>
</g>
</svg>
