<svg id="Layer_1" data-name="Layer 1" xmlns="http://www.w3.org/2000/svg" viewBox="0 0 512 512"><defs><style>.cls-1{fill:#37474f;}.cls-2{fill:#cfd8dc;}.cls-3{fill:#9e9e9e;}.cls-4{fill:#707070;}.cls-5{fill:#f44335;}.cls-6{fill:#c81e1e;}.cls-7{fill:#00bcd4;}.cls-8{fill:#00838f;}.cls-9{fill:#ffeb3a;}.cls-10{fill:#fff;}.cls-11{opacity:0.2;}</style></defs><g id="Page-1"><g id="_091---Deliver-Produce" data-name="091---Deliver-Produce"><path id="Shape" class="cls-1" d="M170.67,415.84a59.74,59.74,0,1,1-119.47,0,47,47,0,0,1,.68-8.53,59.66,59.66,0,0,1,118.1,0A47,47,0,0,1,170.67,415.84Z"/><circle id="Oval" class="cls-2" cx="110.93" cy="415.84" r="17.07"/><path id="Shape-2" data-name="Shape" class="cls-1" d="M460.8,415.84a59.74,59.74,0,1,1-119.47,0,47,47,0,0,1,.69-8.53,59.66,59.66,0,0,1,118.1,0A47,47,0,0,1,460.8,415.84Z"/><circle id="Oval-2" data-name="Oval" class="cls-2" cx="401.07" cy="415.84" r="17.07"/><path id="Shape-3" data-name="Shape" class="cls-3" d="M503.47,381.71a25.6,25.6,0,0,1-25.6,25.6H460.12a59.57,59.57,0,0,0-59.05-51.2h76.8A25.6,25.6,0,0,1,503.47,381.71Z"/><path id="Shape-4" data-name="Shape" class="cls-4" d="M477.87,356.11h-25.6A25.51,25.51,0,0,1,459.88,406c.07.44.18.86.24,1.29h17.75a25.6,25.6,0,1,0,0-51.2Z"/><path id="Shape-5" data-name="Shape" class="cls-3" d="M110.93,356.11a59.57,59.57,0,0,0-59,51.2H42.67a25.6,25.6,0,0,1,0-51.2Z"/><path id="Shape-6" data-name="Shape" class="cls-3" d="M401.07,356.11A59.55,59.55,0,0,0,342,407.31H298.67a17.13,17.13,0,0,0-17.07-17.07H230.4a17.2,17.2,0,0,0-17.07,17.07H170a59.55,59.55,0,0,0-59-51.2Z"/><path id="Shape-7" data-name="Shape" class="cls-5" d="M332.8,66V356.11H25.6A17.12,17.12,0,0,1,8.53,339V66A17.12,17.12,0,0,1,25.6,48.91H315.73A17.12,17.12,0,0,1,332.8,66Z"/><path id="Shape-8" data-name="Shape" class="cls-5" d="M477.87,219.58V356.11H332.8V134.24H384v68.27a17.12,17.12,0,0,0,17.07,17.07Z"/><path id="Rectangle-path" class="cls-6" d="M452.27,219.58h25.6V356.11h-25.6Z"/><path id="Shape-9" data-name="Shape" class="cls-7" d="M477.87,194v25.6h-76.8A17.12,17.12,0,0,1,384,202.51V134.24h34.13A59.74,59.74,0,0,1,477.87,194Z"/><path id="Shape-10" data-name="Shape" class="cls-8" d="M418.13,134.24h-25.6A59.74,59.74,0,0,1,452.27,194v25.6h25.6V194A59.74,59.74,0,0,0,418.13,134.24Z"/><path id="Shape-11" data-name="Shape" class="cls-9" d="M460.8,287.84h17.07V322H460.8a17.07,17.07,0,1,1,0-34.14Z"/><path id="Shape-12" data-name="Shape" class="cls-2" d="M298.67,407.31a17.2,17.2,0,0,1-17.07,17.07H230.4a17.07,17.07,0,0,1,0-34.14h51.2A17.13,17.13,0,0,1,298.67,407.31Z"/><rect class="cls-10" x="8.54" y="163.84" width="324.27" height="77.35"/><rect class="cls-10" x="-25.61" y="165.3" width="307.22" height="74.45" transform="translate(330.52 74.52) rotate(90)"/><path id="Shape-13" data-name="Shape" class="cls-11" d="M315.73,48.91h-25.6A17.12,17.12,0,0,1,307.2,66V356.11h25.6V66A17.12,17.12,0,0,0,315.73,48.91Z"/><path id="Shape-14" data-name="Shape" d="M136.53,415.84a25.6,25.6,0,1,0-25.6,25.61A25.6,25.6,0,0,0,136.53,415.84Zm-34.13,0a8.54,8.54,0,1,1,8.53,8.54A8.53,8.53,0,0,1,102.4,415.84Z"/><path id="Shape-15" data-name="Shape" d="M401.07,441.45a25.61,25.61,0,1,0-25.6-25.61A25.61,25.61,0,0,0,401.07,441.45Zm0-34.14a8.54,8.54,0,1,1-8.54,8.53A8.53,8.53,0,0,1,401.07,407.31Z"/><path id="Shape-16" data-name="Shape" d="M454.27,458.51a67.87,67.87,0,0,0,15.06-42.66h8.54a34.07,34.07,0,0,0,8.53-67.06V194a68.34,68.34,0,0,0-68.27-68.27h-76.8V66a25.6,25.6,0,0,0-25.6-25.6H25.6A25.6,25.6,0,0,0,0,66V339a25.59,25.59,0,0,0,14.78,23.12,34,34,0,0,0,27.89,53.69,67.87,67.87,0,0,0,15.06,42.66S69.36,470.37,78,475.58a68,68,0,0,0,66,0s14.43-8.63,20.23-17.07a67.87,67.87,0,0,0,15.06-42.67h27.17a25.58,25.58,0,0,0,24,17.07h51.2a25.58,25.58,0,0,0,24-17.07H332.8a67.87,67.87,0,0,0,15.06,42.67s6.52,8.74,20.23,17.07a68,68,0,0,0,66,0S447,465,454.27,458.51Zm15.06-145.07H460.8a8.53,8.53,0,0,1,0-17.06h8.53Zm0-119.46V211H401.07a8.53,8.53,0,0,1-8.54-8.53V142.78h25.6A51.24,51.24,0,0,1,469.33,194Zm-93.86-51.2v59.73a25.6,25.6,0,0,0,25.6,25.6h68.26v51.2H460.8a25.6,25.6,0,0,0,0,51.2h8.53v17.07h-128V142.78Zm76.8,273.06a51.2,51.2,0,1,1-51.2-51.2A51.22,51.22,0,0,1,452.27,415.84Zm-392.54,0a51.2,51.2,0,1,1,51.2,51.21A51.22,51.22,0,0,1,59.73,415.84Zm296.33-51.2a68.35,68.35,0,0,0-21,34.14H305.63a25.61,25.61,0,0,0-24-17.07H230.4a25.61,25.61,0,0,0-24,17.07H177a68.35,68.35,0,0,0-21-34.14Zm-65.93,42.67a8.53,8.53,0,0,1-8.53,8.53H230.4a8.53,8.53,0,1,1,0-17.06h51.2A8.53,8.53,0,0,1,290.13,407.31ZM17.07,66a8.54,8.54,0,0,1,8.53-8.54H315.73A8.54,8.54,0,0,1,324.27,66v281.6H25.6A8.53,8.53,0,0,1,17.07,339Zm25.6,332.8a17.07,17.07,0,0,1,0-34.14H65.93a68.22,68.22,0,0,0-21,34.14Zm403.4-34.14h31.8a17.07,17.07,0,0,1,0,34.14H467.09A68.22,68.22,0,0,0,446.07,364.64Z"/><path id="Shape-17" data-name="Shape" d="M392.53,279.31h25.6a8.54,8.54,0,1,0,0-17.07h-25.6a8.54,8.54,0,0,0,0,17.07Z"/></g></g></svg>