<svg width="35" height="35" viewBox="0 0 35 35" fill="none" xmlns="http://www.w3.org/2000/svg">
<circle cx="17.5" cy="17.5" r="16" fill="white" stroke="black" stroke-width="3"/>
<path fill-rule="evenodd" clip-rule="evenodd" d="M12.437 14.1325C12.2421 13.9354 11.9241 13.9346 11.7281 14.1306L10.1579 15.7008C9.84289 16.0158 9.30432 15.7927 9.30432 15.3472V9.80435C9.30432 9.52821 9.52818 9.30435 9.80432 9.30435H15.3472C15.7927 9.30435 16.0158 9.84292 15.7008 10.1579L14.1299 11.7287C13.9342 11.9245 13.9347 12.242 14.1312 12.4371L16.1983 14.4899C16.3947 14.685 16.3953 15.0025 16.1995 15.1982L15.1939 16.2039C14.9979 16.3999 14.6799 16.399 14.4849 16.202L12.437 14.1325ZM21.2665 12.4371C21.4629 12.242 21.4635 11.9245 21.2677 11.7287L19.6969 10.1579C19.3819 9.84292 19.605 9.30435 20.0504 9.30435H25.0933C25.6456 9.30435 26.0933 9.75206 26.0933 10.3043V15.3472C26.0933 15.7927 25.5548 16.0158 25.2398 15.7008L23.6696 14.1306C23.4736 13.9346 23.1556 13.9354 22.9606 14.1325L20.9127 16.202C20.7177 16.399 20.3997 16.3999 20.2037 16.2039L19.1981 15.1982C19.0023 15.0025 19.0029 14.685 19.1993 14.4899L21.2665 12.4371ZM15.3472 26.0933C15.7927 26.0933 16.0158 25.5548 15.7008 25.2398L14.1299 23.669C13.9342 23.4732 13.9347 23.1557 14.1312 22.9606L16.1983 20.9078C16.3947 20.7127 16.3953 20.3952 16.1995 20.1995L15.1939 19.1938C14.9979 18.9978 14.6799 18.9987 14.4849 19.1957L12.437 21.2652C12.2421 21.4623 11.9241 21.4631 11.7281 21.2671L10.1579 19.6969C9.84289 19.3819 9.30432 19.605 9.30432 20.0505V25.5933C9.30432 25.8695 9.52818 26.0933 9.80432 26.0933H15.3472ZM22.9606 21.2665C23.1557 21.4629 23.4732 21.4635 23.6689 21.2677L25.2398 19.6969C25.5548 19.3819 26.0933 19.605 26.0933 20.0505V25.5933C26.0933 25.8695 25.8695 26.0933 25.5933 26.0933H20.0504C19.605 26.0933 19.3819 25.5548 19.6969 25.2398L21.2671 23.6696C21.4631 23.4736 21.4622 23.1556 21.2652 22.9606L19.1956 20.9127C18.9986 20.7178 18.9978 20.3998 19.1938 20.2038L20.1994 19.1981C20.3952 19.0024 20.7127 19.0029 20.9077 19.1994L22.9606 21.2665Z" fill="black"/>
</svg>
