<svg width="46" height="46" viewBox="0 0 46 46" fill="none" xmlns="http://www.w3.org/2000/svg">
<g filter="url(#filter0_d)">
<circle cx="22" cy="22" r="20" fill="#EBC6AB"/>
<path fill-rule="evenodd" clip-rule="evenodd" d="M16.0032 17.9902C15.8083 17.7932 15.4903 17.7924 15.2943 17.9884L13.2449 20.0378C12.9299 20.3527 12.3914 20.1297 12.3914 19.6842V12.8913C12.3914 12.6152 12.6152 12.3913 12.8914 12.3913H19.6843C20.1297 12.3913 20.3528 12.9299 20.0378 13.2449L17.9878 15.2949C17.7921 15.4906 17.7926 15.8081 17.989 16.0032L20.5353 18.5319C20.7318 18.7269 20.7323 19.0445 20.5366 19.2402L19.2351 20.5417C19.0391 20.7377 18.7211 20.7368 18.5262 20.5398L16.0032 17.9902ZM26.4773 16.0032C26.6737 15.8081 26.6743 15.4906 26.4786 15.2949L24.4286 13.2449C24.1136 12.9299 24.3367 12.3913 24.7821 12.3913H31.075C31.6273 12.3913 32.075 12.839 32.075 13.3913V19.6842C32.075 20.1297 31.5364 20.3527 31.2215 20.0378L29.1721 17.9884C28.9761 17.7924 28.6581 17.7932 28.4631 17.9902L25.9402 20.5398C25.7452 20.7368 25.4272 20.7377 25.2312 20.5417L23.9297 19.2402C23.734 19.0445 23.7346 18.7269 23.931 18.5319L26.4773 16.0032ZM19.6843 32.075C20.1297 32.075 20.3528 31.5364 20.0378 31.2214L17.9878 29.1714C17.7921 28.9757 17.7926 28.6581 17.989 28.4631L20.5353 25.9344C20.7318 25.7393 20.7323 25.4218 20.5366 25.2261L19.2351 23.9246C19.0391 23.7286 18.7211 23.7294 18.5262 23.9265L16.0032 26.476C15.8083 26.673 15.4903 26.6739 15.2943 26.4779L13.2449 24.4285C12.9299 24.1135 12.3914 24.3366 12.3914 24.7821V31.575C12.3914 31.8511 12.6152 32.075 12.8914 32.075H19.6843ZM28.4631 26.4773C28.6582 26.6737 28.9757 26.6743 29.1715 26.4785L31.2215 24.4285C31.5365 24.1135 32.075 24.3366 32.075 24.7821V31.575C32.075 31.8511 31.8512 32.075 31.575 32.075H24.7821C24.3367 32.075 24.1136 31.5364 24.4286 31.2214L26.4779 29.172C26.6739 28.9761 26.6731 28.658 26.4761 28.4631L23.9265 25.9402C23.7295 25.7452 23.7286 25.4272 23.9246 25.2312L25.2261 23.9297C25.4218 23.734 25.7393 23.7346 25.9344 23.931L28.4631 26.4773Z" fill="white"/>
</g>
<defs>
<filter id="filter0_d" x="0" y="0" width="46" height="46" filterUnits="userSpaceOnUse" color-interpolation-filters="sRGB">
<feFlood flood-opacity="0" result="BackgroundImageFix"/>
<feColorMatrix in="SourceAlpha" type="matrix" values="0 0 0 0 0 0 0 0 0 0 0 0 0 0 0 0 0 0 127 0"/>
<feOffset dx="1" dy="1"/>
<feGaussianBlur stdDeviation="1.5"/>
<feColorMatrix type="matrix" values="0 0 0 0 0 0 0 0 0 0 0 0 0 0 0 0 0 0 0.25 0"/>
<feBlend mode="normal" in2="BackgroundImageFix" result="effect1_dropShadow"/>
<feBlend mode="normal" in="SourceGraphic" in2="effect1_dropShadow" result="shape"/>
</filter>
</defs>
</svg>
