<?xml version="1.0" encoding="utf-8"?>
<!-- Generator: Adobe Illustrator 24.3.0, SVG Export Plug-In . SVG Version: 6.00 Build 0)  -->
<svg version="1.1" id="Capa_1" xmlns="http://www.w3.org/2000/svg" xmlns:xlink="http://www.w3.org/1999/xlink" x="0px" y="0px"
	 viewBox="0 0 512 512" style="enable-background:new 0 0 512 512;" xml:space="preserve">
<style type="text/css">
	.st0{fill:#BADB47;}
	.st1{fill:#1FC979;}
	.st2{fill:#EDF5FF;}
	.st3{fill:#D6E8FD;}
	.st4{fill:none;}
	.st5{fill:#19A995;}
	.st6{fill:#0D7579;}
</style>
<g>
	<g>
		<g>
			<path class="st0" d="M0,256c0,141.4,114.6,256,256,256l35.1-259.3L256,0C114.6,0,0,114.6,0,256z"/>
			<path class="st1" d="M256,0v512c141.4,0,256-114.6,256-256S397.4,0,256,0z"/>
		</g>
		<g>
			<path class="st2" d="M70.8,256c0,102.3,82.9,185.2,185.2,185.2l25.4-187.6L256,70.8C153.7,70.8,70.8,153.7,70.8,256L70.8,256z"/>
			<path class="st3" d="M256,70.8v370.4c102.3,0,185.2-82.9,185.2-185.2C441.2,153.7,358.3,70.8,256,70.8L256,70.8z"/>
		</g>
		<g>
			<path class="st4" d="M238.8,303c0,10,6.1,16.3,15.3,16.3c0.7,0,1.3,0,2-0.1v-32.4c-0.6-0.1-1.3-0.1-2-0.1
				C244.9,286.7,238.8,293,238.8,303L238.8,303z"/>
			<path class="st1" d="M211,159.5h-41.3v24.2c0,33.1,26.9,60,60,60H256l15.3-28.9l-15.3-35C245,167.4,228.9,159.5,211,159.5z"/>
		</g>
		<path class="st5" d="M301,159.5c-17.9,0-34,7.9-45,20.4v63.8h26.3c33.1,0,60-26.9,60-60v-24.2L301,159.5L301,159.5z"/>
	</g>
	<path class="st5" d="M144.3,352.8h47.6v-22.2h-25.4v-11.9h23.3v-22.2h-23.3v-11.9h25.4v-22.2h-47.6V352.8z"/>
	<path class="st6" d="M326.2,263.9c-25.1,0-45.5,20.4-45.5,45.5c0,25.1,20.4,45.5,45.5,45.5s45.5-20.4,45.5-45.5
		C371.7,284.3,351.3,263.9,326.2,263.9z M326.2,332.7c-12.9,0-23.3-10.5-23.3-23.3c0-12.9,10.5-23.3,23.3-23.3s23.3,10.5,23.3,23.3
		C349.5,322.2,339,332.7,326.2,332.7z"/>
	<g>
		<path class="st4" d="M225.8,309.3c0,12.9,10.5,23.3,23.3,23.3c2.5,0,4.8-0.4,6.9-1.2V287c-2.2-0.7-4.5-1-6.9-1
			C236.3,286,225.8,296.5,225.8,309.3L225.8,309.3z"/>
		<path class="st5" d="M249.1,332.7c-12.9,0-23.3-10.5-23.3-23.3c0-12.9,10.5-23.3,23.3-23.3c2.4,0,4.7,0.3,6.9,1l6.9-13.2l-6.9-9.4
			c-2.3-0.3-4.6-0.5-6.9-0.5c-25.1,0-45.5,20.4-45.5,45.5c0,25.1,20.4,45.5,45.5,45.5c2.3,0,4.6-0.2,6.9-0.5l6.9-13.7l-6.9-9.1
			C253.9,332.3,251.7,332.7,249.1,332.7L249.1,332.7z"/>
		<path class="st6" d="M262.3,326.9c-0.5,0.6-1.1,1.2-1.7,1.7c-1.4,1.2-2.9,2.1-4.6,2.8v22.8c7.3-1.2,14-4.3,19.4-9.1
			c1.4-1.2,2.7-2.6,3.9-4L262.3,326.9z"/>
	</g>
	<path class="st6" d="M262.2,290l12.4-18.4c-5.6-3.8-11.9-6.3-18.6-7.3V287C258.2,287.7,260.3,288.7,262.2,290z"/>
</g>
</svg>
