<svg id="Layer_1" data-name="Layer 1" xmlns="http://www.w3.org/2000/svg" viewBox="0 0 479.9 384"><defs><style>.cls-1{fill:#eedc9a;}.cls-2{fill:#badb47;}.cls-3{fill:#1fc979;}.cls-4{fill:#edf5ff;}.cls-5{fill:#d6e8fd;}.cls-6{fill:none;}.cls-7{fill:#19a995;}.cls-8{fill:#0d7579;}.cls-9{fill:#eebe33;}.cls-10{fill:#f4ceaf;}.cls-11{fill:#396795;}.cls-12{fill:#ad7d4d;}.cls-13{fill:#8acce7;}.cls-14{fill:#d29979;}</style></defs><g id="Fill_out_line" data-name="Fill out line"><path class="cls-1" d="M23.9,8h336a16,16,0,0,1,16,16V248a16,16,0,0,1-16,16H23.9a16,16,0,0,1-16-16V24A16,16,0,0,1,23.9,8Z"/><path class="cls-2" d="M7.9,134.4A129.57,129.57,0,0,0,137.5,264l17.8-131.2L137.5,4.9A129.55,129.55,0,0,0,7.9,134.4Z"/><path class="cls-3" d="M137.5,4.9V264a129.55,129.55,0,1,0,0-259.1Z"/><path class="cls-4" d="M43.7,134.4a93.7,93.7,0,0,0,93.7,93.7l12.8-94.9L137.4,40.7a93.76,93.76,0,0,0-93.7,93.7Z"/><path class="cls-5" d="M137.5,40.7V228.2a93.75,93.75,0,0,0,0-187.5Z"/><path class="cls-6" d="M128.8,158.2c0,5,3.1,8.2,7.7,8.2a3.4,3.4,0,0,0,1-.1V149.9c-.3,0-.6-.1-1-.1-4.6.2-7.7,3.4-7.7,8.4Z"/><path class="cls-3" d="M114.7,85.6H93.8V97.8a30.39,30.39,0,0,0,30.4,30.4h13.3l7.7-14.6-7.7-17.7A30.39,30.39,0,0,0,114.7,85.6Z"/><path class="cls-7" d="M160.3,85.6a30.39,30.39,0,0,0-22.8,10.3v32.3h13.3a30.39,30.39,0,0,0,30.4-30.4V85.6Z"/><path class="cls-7" d="M81,183.4h24.1V172.2H92.2v-6H104V155H92.2v-6h12.9V137.8H81Z"/><path class="cls-8" d="M173,138.4a23,23,0,1,0,23,23A23,23,0,0,0,173,138.4Zm0,34.8a11.8,11.8,0,1,1,11.8-11.8A11.82,11.82,0,0,1,173,173.2Z"/><path class="cls-6" d="M122.2,161.4A11.82,11.82,0,0,0,134,173.2a9.89,9.89,0,0,0,3.5-.6V150.1a13.45,13.45,0,0,0-3.5-.5,11.82,11.82,0,0,0-11.8,11.8Z"/><path class="cls-7" d="M134,173.2a11.8,11.8,0,0,1,0-23.6,13.45,13.45,0,0,1,3.5.5l3.5-6.7-3.5-4.8a19.83,19.83,0,0,0-3.5-.3,23,23,0,0,0,0,46,20.68,20.68,0,0,0,3.5-.3l3.5-6.9-3.5-4.6a8.12,8.12,0,0,1-3.5.7Z"/><path class="cls-8" d="M140.7,170.3a6.47,6.47,0,0,0-.8.9,7.22,7.22,0,0,1-2.4,1.4v11.6a19.4,19.4,0,0,0,9.8-4.6,18.88,18.88,0,0,0,2-2Z"/><path class="cls-8" d="M140.6,151.6l6.3-9.3a22.63,22.63,0,0,0-9.4-3.7v11.5A17.72,17.72,0,0,1,140.6,151.6Z"/><path class="cls-9" d="M263.9,264V8h96a16,16,0,0,1,16,16V248a16,16,0,0,1-16,16Z"/><rect class="cls-7" x="104.5" y="7.6" width="32.9" height="64.6"/><rect class="cls-3" x="137.5" y="7.6" width="32.9" height="64.6"/><path class="cls-10" d="M447.9,224l-12.7,12.7L399.9,272h-9.4a54.76,54.76,0,0,1-54.7-54.6V208l-16-16a34,34,0,0,1-2-45.8,31.09,31.09,0,0,1-14-34.2l112,16Z"/><path class="cls-11" d="M479.9,256l-32-32-52.7,52.7a16.06,16.06,0,0,0,0,22.6L479.9,384Z"/><path class="cls-12" d="M459.7,192.9a16.46,16.46,0,0,1-19,12.2l-15.3-2.9-24.8-4.7-8.7-1.7L367,191.1,287.9,176l-24-24,32-8,29.6,5.6,28,5.3,55,10.5,24.8,4.7,13.4,2.6A16.51,16.51,0,0,1,459.8,192a2.77,2.77,0,0,1-.1.9Z"/><path class="cls-1" d="M433.4,170.2l-8,32-24.8-4.7,8-32Z"/><path class="cls-13" d="M459.7,192.9a16.46,16.46,0,0,1-19,12.2l-15.3-2.9,8-32,13.4,2.6a16.51,16.51,0,0,1,13.1,19.3c-.1.2-.1.5-.2.8Z"/><path class="cls-10" d="M423.9,248l-24,24h-9.4a54.76,54.76,0,0,1-54.7-54.6V208l-16-16a33.86,33.86,0,0,1,0-48l5.6,5.6L375.8,200v16a8,8,0,0,0,16,0Z"/><path class="cls-14" d="M288.9,175.5l-1,.5-24-24,32-8a21.73,21.73,0,0,1-5,30.2c-.7.4-1.3.9-2,1.3Z"/><circle cx="423.9" cy="288" r="8"/><path d="M454.9,219.7l-2.6-7.9a24.52,24.52,0,0,0-4-47l-12.4-2.4-12.3-37a8,8,0,0,0-6.5-5.4l-112-16a8,8,0,0,0-8.9,6,38.86,38.86,0,0,0,2.7,26.4l-1.4-.3a7.81,7.81,0,0,0-3.4.1L272,141.7V16h88a8,8,0,0,1,8,8V96h16V24A24.07,24.07,0,0,0,360,0H24A24.07,24.07,0,0,0,0,24V248a24.07,24.07,0,0,0,24,24H296V256H24a8,8,0,0,1-8-8V24a8,8,0,0,1,8-8H97.6V80a8.06,8.06,0,0,0,13.7,5.7l10.3-10.3,10.3,10.3a8,8,0,0,0,11.3,0l10.3-10.3,10.3,10.3a8,8,0,0,0,11.3,0,7.93,7.93,0,0,0,2.3-5.7V16h78.4V152h0a8.1,8.1,0,0,0,2.3,5.7l24,24a8.14,8.14,0,0,0,4.2,2.2l20.5,3.9a42,42,0,0,0,7.4,9.9l13.7,13.7v5.9A62.59,62.59,0,0,0,384,279.7a24.13,24.13,0,0,0,5.5,25.3l44.7,44.7,11.3-11.3-44.7-44.7a8,8,0,0,1,0-11.3l47-47,18.3,18.3,11.3-11.3ZM161.5,60.7l-2.3-2.3a8,8,0,0,0-11.3,0L137.6,68.7,127.3,58.4a8,8,0,0,0-11.3,0l-2.3,2.3V16h48V60.7Zm209.4,123-21.3-21.3,15.1,2.9,16.3,3.1h0l17.8,3.4-4.1,16.5Zm43.6-9,9.1,1.7-4.1,16.5-9.1-1.7Zm36.3,9.7a8.45,8.45,0,0,1-2.6,11.7,8.12,8.12,0,0,1-4.5,1.3,8.6,8.6,0,0,1-1.6-.1l-6.9-1.3,4.1-16.5,6,1.1a8,8,0,0,1,5.5,3.8Zm-40.9-49.2,8,23.9-55.6-10.6-32.4-6.2c-.1,0-.2-.1-.3-.1l-3.9-3.9a7.77,7.77,0,0,0-7.5-2.1,23.44,23.44,0,0,1-7-15.1ZM291.8,168.6l-12.3-12.3,16.6-4.1,8.3,1.6a43.33,43.33,0,0,0-2.5,14.2,22.6,22.6,0,0,0,.1,2.6ZM396.6,264h-6a46.69,46.69,0,0,1-46.7-46.7v-9.4a8.1,8.1,0,0,0-2.3-5.7l-16-16a26,26,0,0,1-4.8-30.1l47.1,47.1v28.7h16V202.3l51.7,9.8,3.2,9.6Z"/></g></svg>