<?xml version="1.0" encoding="utf-8"?>
<!-- Generator: Adobe Illustrator 24.3.0, SVG Export Plug-In . SVG Version: 6.00 Build 0)  -->
<svg version="1.1" id="Layer_1" xmlns="http://www.w3.org/2000/svg" xmlns:xlink="http://www.w3.org/1999/xlink" x="0px" y="0px"
	 viewBox="0 0 512 512" style="enable-background:new 0 0 512 512;" xml:space="preserve">
<style type="text/css">
	.st0{fill:#EEDC9A;}
	.st1{fill:#BADB47;}
	.st2{fill:#1FC979;}
	.st3{fill:#EDF5FF;}
	.st4{fill:#D6E8FD;}
	.st5{fill:none;}
	.st6{fill:#19A995;}
	.st7{fill:#0D7579;}
	.st8{fill:#EEBE33;}
	.st9{fill:#F4CEAF;}
	.st10{fill:#396795;}
	.st11{fill:#AD7D4D;}
	.st12{fill:#8ACCE7;}
	.st13{fill:#D29979;}
	.st14{display:none;}
</style>
<g id="Fill_out_line_1_">
	<path class="st0" d="M-1180.1,87.5h336c8.8,0,16,7.2,16,16v224c0,8.8-7.2,16-16,16h-336c-8.8,0-16-7.2-16-16v-224
		C-1196.1,94.7-1188.9,87.5-1180.1,87.5z"/>
	<g>
		<g>
			<g>
				<path class="st1" d="M-1196.1,213.9c0,71.6,58,129.6,129.6,129.6l17.8-131.2l-17.8-127.9
					C-1138.1,84.4-1196.1,142.4-1196.1,213.9z"/>
				<path class="st2" d="M-1066.5,84.4v259.1c71.6,0,129.6-58,129.6-129.6S-995,84.4-1066.5,84.4z"/>
			</g>
			<g>
				<path class="st3" d="M-1160.3,213.9c0,51.8,42,93.7,93.7,93.7l12.8-94.9l-12.8-92.5C-1118.3,120.2-1160.3,162.2-1160.3,213.9
					L-1160.3,213.9z"/>
				<path class="st4" d="M-1066.5,120.2v187.5c51.8,0,93.7-42,93.7-93.7C-972.8,162.2-1014.8,120.2-1066.5,120.2L-1066.5,120.2z"/>
			</g>
			<g>
				<path class="st5" d="M-1075.2,237.7c0,5,3.1,8.2,7.7,8.2c0.3,0,0.7,0,1-0.1v-16.4c-0.3,0-0.6-0.1-1-0.1
					C-1072.1,229.5-1075.2,232.7-1075.2,237.7L-1075.2,237.7z"/>
				<path class="st2" d="M-1089.3,165.1h-20.9v12.2c0,16.8,13.6,30.4,30.4,30.4h13.3l7.7-14.6l-7.7-17.7
					C-1072.1,169.1-1080.2,165.1-1089.3,165.1z"/>
			</g>
			<path class="st6" d="M-1043.7,165.1c-9.1,0-17.2,4-22.8,10.3v32.3h13.3c16.8,0,30.4-13.6,30.4-30.4v-12.2L-1043.7,165.1
				L-1043.7,165.1z"/>
		</g>
		<path class="st6" d="M-1123,262.9h24.1v-11.2h-12.9v-6h11.8v-11.2h-11.8v-6h12.9v-11.2h-24.1V262.9z"/>
		<path class="st7" d="M-1031,217.9c-12.7,0-23,10.3-23,23c0,12.7,10.3,23,23,23c12.7,0,23-10.3,23-23
			C-1008,228.2-1018.3,217.9-1031,217.9z M-1031,252.7c-6.5,0-11.8-5.3-11.8-11.8c0-6.5,5.3-11.8,11.8-11.8
			c6.5,0,11.8,5.3,11.8,11.8C-1019.2,247.4-1024.5,252.7-1031,252.7z"/>
		<g>
			<path class="st5" d="M-1081.8,240.9c0,6.5,5.3,11.8,11.8,11.8c1.3,0,2.4-0.2,3.5-0.6v-22.5c-1.1-0.3-2.3-0.5-3.5-0.5
				C-1076.5,229.1-1081.8,234.4-1081.8,240.9L-1081.8,240.9z"/>
			<path class="st6" d="M-1070,252.7c-6.5,0-11.8-5.3-11.8-11.8c0-6.5,5.3-11.8,11.8-11.8c1.2,0,2.4,0.2,3.5,0.5l3.5-6.7l-3.5-4.8
				c-1.1-0.2-2.3-0.3-3.5-0.3c-12.7,0-23,10.3-23,23c0,12.7,10.3,23,23,23c1.2,0,2.3-0.1,3.5-0.3l3.5-6.9l-3.5-4.6
				C-1067.6,252.5-1068.7,252.7-1070,252.7L-1070,252.7z"/>
			<path class="st7" d="M-1063.3,249.8c-0.3,0.3-0.6,0.6-0.8,0.9c-0.7,0.6-1.5,1.1-2.4,1.4v11.6c3.7-0.6,7.1-2.2,9.8-4.6
				c0.7-0.6,1.4-1.3,2-2L-1063.3,249.8z"/>
		</g>
		<path class="st7" d="M-1063.4,231.1l6.3-9.3c-2.8-1.9-6-3.2-9.4-3.7v11.5C-1065.4,230-1064.4,230.5-1063.4,231.1z"/>
	</g>
	<path class="st8" d="M-940.1,343.5v-256h96c8.8,0,16,7.2,16,16v224c0,8.8-7.2,16-16,16H-940.1z"/>
	<rect x="-1099.5" y="87.1" class="st6" width="32.9" height="64.6"/>
	<rect x="-1066.5" y="87.1" class="st2" width="32.9" height="64.6"/>
	<path class="st9" d="M-756.1,303.5l-12.7,12.7l-35.3,35.3h-9.4c-30.2,0-54.6-24.5-54.7-54.6c0,0,0-0.1,0-0.1l0-9.3l-16-16
		c-12.4-12.4-13.3-32.3-2-45.8c-11.7-7.1-17.3-20.9-14-34.2l112,16L-756.1,303.5z"/>
	<path class="st10" d="M-724.1,335.5l-32-32l-52.7,52.7c-6.2,6.2-6.2,16.4,0,22.6l84.7,84.7V335.5z"/>
	<path class="st11" d="M-744.3,272.4c-2.1,8.5-10.5,13.8-19,12.2l-15.3-2.9l-24.8-4.7l-8.7-1.7l-24.9-4.7l-79.1-15.1l-24-24l32-8
		l29.6,5.6l28,5.3l55,10.5l24.8,4.7l13.4,2.6c8.9,1.7,14.8,10.3,13.1,19.3C-744.2,271.8-744.2,272.1-744.3,272.4L-744.3,272.4z"/>
	<path class="st0" d="M-770.6,249.7l-8,32l-24.8-4.7l8-32L-770.6,249.7z"/>
	<path class="st12" d="M-744.3,272.4c-2.1,8.5-10.5,13.8-19,12.2l-15.3-2.9l8-32l13.4,2.6c8.9,1.7,14.8,10.3,13.1,19.3
		C-744.2,271.8-744.2,272.1-744.3,272.4L-744.3,272.4z"/>
	<path class="st9" d="M-780.1,327.5l-24,24h-9.4c-30.2,0-54.6-24.5-54.7-54.6c0,0,0-0.1,0-0.1l0-9.3l-16-16
		c-13.3-13.3-13.3-34.7,0-48l5.6,5.6l50.4,50.4v16c0,4.4,3.6,8,8,8s8-3.6,8-8L-780.1,327.5z"/>
	<path class="st13" d="M-915.1,255l-1,0.5l-24-24l32-8c6.9,9.7,4.7,23.2-5,30.2C-913.8,254.1-914.4,254.6-915.1,255L-915.1,255z"/>
	<circle cx="-780.1" cy="367.5" r="8"/>
	<path d="M-749.1,299.2l-2.6-7.9c12.7-4.7,19.1-18.8,14.3-31.5c-3-8-9.9-13.9-18.3-15.5l-12.4-2.4l-12.3-37c-1-2.9-3.5-5-6.5-5.4
		l-112-16c-4.1-0.6-7.9,2-8.9,6c-2.2,8.8-1.3,18.2,2.7,26.4l-1.4-0.3c-1.1-0.2-2.3-0.2-3.4,0.1l-22.1,5.5V95.5h88c4.4,0,8,3.6,8,8
		v72h16v-72c0-13.2-10.8-24-24-24h-336c-13.2,0-24,10.8-24,24v224c0,13.2,10.8,24,24,24h272v-16h-272c-4.4,0-8-3.6-8-8v-224
		c0-4.4,3.6-8,8-8h73.6v64c0,4.4,3.6,8,8,8c2.1,0,4.2-0.8,5.7-2.3l10.3-10.3l10.3,10.3c3.1,3.1,8.2,3.1,11.3,0l10.3-10.3l10.3,10.3
		c3.1,3.1,8.2,3.1,11.3,0c1.5-1.5,2.3-3.5,2.3-5.7v-64h78.4v136h0c0,2.1,0.8,4.2,2.3,5.7l24,24c1.1,1.1,2.6,1.9,4.2,2.2l20.5,3.9
		c2,3.6,4.4,7,7.4,9.9l13.7,13.7l0,5.9c-0.1,32.1,24.2,59.1,56.1,62.4c-3.2,8.8-1.1,18.7,5.5,25.3l44.7,44.7l11.3-11.3l-44.7-44.7
		c-3.1-3.1-3.1-8.2,0-11.3l47-47l18.3,18.3l11.3-11.3L-749.1,299.2z M-1042.5,140.2l-2.3-2.3c-3.1-3.1-8.2-3.1-11.3,0l-10.3,10.3
		l-10.3-10.3c-3.1-3.1-8.2-3.1-11.3,0l-2.3,2.3V95.5h48V140.2z M-833.1,263.2l-21.3-21.3l15.1,2.9l16.3,3.1l0,0l17.8,3.4l-4.1,16.5
		L-833.1,263.2z M-789.5,254.2l9.1,1.7l-4.1,16.5l-9.1-1.7L-789.5,254.2z M-753.2,263.9c2.5,3.9,1.4,9.2-2.6,11.7
		c-1.4,0.9-2.9,1.3-4.5,1.3c-0.5,0-1.1,0-1.6-0.1l-6.9-1.3l4.1-16.5l6,1.1C-756.4,260.5-754.4,261.9-753.2,263.9L-753.2,263.9z
		 M-794.1,214.7l8,23.9l-55.6-10.6l-32.4-6.2c-0.1,0-0.2-0.1-0.3-0.1l-3.9-3.9c-2-2-4.8-2.8-7.5-2.1c-4.1-4-6.6-9.4-7-15.1
		L-794.1,214.7z M-912.2,248.1l-12.3-12.3l16.6-4.1l8.3,1.6c-1.6,4.6-2.5,9.4-2.5,14.2c0,0.9,0,1.7,0.1,2.6L-912.2,248.1z
		 M-807.4,343.5h-6c-25.8,0-46.7-20.9-46.7-46.7c0,0,0,0,0-0.1l0-9.3c0-2.1-0.8-4.2-2.3-5.7l-16-16c-7.9-8-9.9-20.1-4.8-30.1
		l47.1,47.1v28.7h16v-29.6l51.7,9.8l3.2,9.6L-807.4,343.5z"/>
</g>
<g id="Fill_out_line_2_">
	<path class="st0" d="M-539.1,136.5h336c8.8,0,16,7.2,16,16v224c0,8.8-7.2,16-16,16h-336c-8.8,0-16-7.2-16-16v-224
		C-555.1,143.6-548,136.5-539.1,136.5z"/>
	<g>
		<g>
			<g>
				<path class="st1" d="M-555.1,264.5c0,70.7,57.3,128,128,128l17.5-129.6l-17.5-126.4C-497.8,136.5-555.1,193.8-555.1,264.5z"/>
				<path class="st2" d="M-427.1,136.5v256c70.7,0,128-57.3,128-128S-356.4,136.5-427.1,136.5z"/>
			</g>
			<g>
				<path class="st3" d="M-519.7,264.5c0,51.1,41.5,92.6,92.6,92.6l12.7-93.8l-12.7-91.4C-478.3,171.9-519.7,213.3-519.7,264.5
					L-519.7,264.5z"/>
				<path class="st4" d="M-427.1,171.9v185.2c51.1,0,92.6-41.5,92.6-92.6C-334.5,213.3-376,171.9-427.1,171.9L-427.1,171.9z"/>
			</g>
			<g>
				<path class="st5" d="M-435.8,288c0,5,3.1,8.1,7.6,8.1c0.3,0,0.7,0,1-0.1v-16.2c-0.3,0-0.6-0.1-1-0.1
					C-432.7,279.8-435.8,283-435.8,288L-435.8,288z"/>
				<path class="st2" d="M-449.7,216.2h-20.7v12.1c0,16.6,13.5,30,30,30h13.2l7.6-14.4l-7.6-17.5
					C-432.6,220.2-440.7,216.2-449.7,216.2z"/>
			</g>
			<path class="st6" d="M-404.6,216.2c-9,0-17,4-22.5,10.2v31.9h13.2c16.6,0,30-13.5,30-30v-12.1L-404.6,216.2L-404.6,216.2z"/>
		</g>
		<path class="st6" d="M-483,312.9h23.8v-11.1h-12.7v-6h11.6v-11.1h-11.6v-6h12.7v-11.1H-483V312.9z"/>
		<path class="st7" d="M-392,268.4c-12.5,0-22.7,10.2-22.7,22.7c0,12.5,10.2,22.7,22.7,22.7s22.7-10.2,22.7-22.7
			C-369.3,278.6-379.5,268.4-392,268.4z M-392,302.8c-6.4,0-11.7-5.2-11.7-11.7c0-6.4,5.2-11.7,11.7-11.7c6.4,0,11.7,5.2,11.7,11.7
			C-380.4,297.6-385.6,302.8-392,302.8z"/>
		<g>
			<path class="st5" d="M-442.2,291.2c0,6.4,5.2,11.7,11.7,11.7c1.3,0,2.4-0.2,3.4-0.6V280c-1.1-0.3-2.3-0.5-3.4-0.5
				C-437,279.5-442.2,284.7-442.2,291.2L-442.2,291.2z"/>
			<path class="st6" d="M-430.6,302.8c-6.4,0-11.7-5.2-11.7-11.7c0-6.4,5.2-11.7,11.7-11.7c1.2,0,2.3,0.2,3.4,0.5l3.5-6.6l-3.5-4.7
				c-1.1-0.2-2.3-0.3-3.4-0.3c-12.5,0-22.7,10.2-22.7,22.7c0,12.5,10.2,22.7,22.7,22.7c1.2,0,2.3-0.1,3.4-0.3l3.5-6.8l-3.5-4.6
				C-428.2,302.6-429.3,302.8-430.6,302.8L-430.6,302.8z"/>
			<path class="st7" d="M-424,299.9c-0.3,0.3-0.5,0.6-0.8,0.9c-0.7,0.6-1.5,1.1-2.3,1.4v11.4c3.7-0.6,7-2.1,9.7-4.5
				c0.7-0.6,1.3-1.3,2-2L-424,299.9z"/>
		</g>
		<path class="st7" d="M-424.1,281.5l6.2-9.2c-2.8-1.9-6-3.1-9.3-3.6V280C-426,280.3-425,280.8-424.1,281.5z"/>
	</g>
	<path class="st8" d="M-299.1,392.5v-256h96c8.8,0,16,7.2,16,16v224c0,8.8-7.2,16-16,16H-299.1z"/>
	<g>
		<path class="st2" d="M-427.1,200.6l-17-12.2c-1.9-1.3-4.5-1-6,0.7l-7.3,8.4c-0.9,1-2.6,0.4-2.6-1v-60.6h32.9V200.6z"/>
		<path class="st6" d="M-427.1,200.6l17.9-12.2c1.9-1.3,4.5-0.9,6,0.9l6.4,8c0.9,1.1,2.6,0.5,2.6-0.9v-60.3h-32.9V200.6z"/>
	</g>
</g>
<g id="Fill_out_line_3_">
	<path class="st0" d="M40,72h336c8.8,0,16,7.2,16,16v224c0,8.8-7.2,16-16,16H40c-8.8,0-16-7.2-16-16V88C24,79.2,31.2,72,40,72z"/>
	<g>
		<g>
			<g>
				<path class="st1" d="M24,200c0,70.7,57.3,128,128,128l17.5-129.6L152,72C81.3,72,24,129.3,24,200z"/>
				<path class="st2" d="M152,72v256c70.7,0,128-57.3,128-128S222.7,72,152,72z"/>
			</g>
			<g>
				<path class="st3" d="M59.4,200c0,51.1,41.5,92.6,92.6,92.6l12.7-93.8L152,107.4C100.9,107.4,59.4,148.9,59.4,200L59.4,200z"/>
				<path class="st4" d="M152,107.4v185.2c51.1,0,92.6-41.5,92.6-92.6C244.6,148.9,203.1,107.4,152,107.4L152,107.4z"/>
			</g>
			<g>
				<path class="st5" d="M143.4,223.5c0,5,3.1,8.1,7.6,8.1c0.3,0,0.7,0,1-0.1v-16.2c-0.3,0-0.6-0.1-1-0.1
					C146.5,215.4,143.4,218.5,143.4,223.5L143.4,223.5z"/>
				<path class="st2" d="M129.5,151.7h-20.7v12.1c0,16.6,13.5,30,30,30H152l7.6-14.4l-7.6-17.5C146.5,155.7,138.4,151.7,129.5,151.7
					z"/>
			</g>
			<path class="st6" d="M174.5,151.7c-9,0-17,4-22.5,10.2v31.9h13.2c16.6,0,30-13.5,30-30v-12.1L174.5,151.7L174.5,151.7z"/>
		</g>
		<path class="st6" d="M96.2,248.4h23.8v-11.1h-12.7v-6h11.6v-11.1h-11.6v-6h12.7v-11.1H96.2V248.4z"/>
		<path class="st7" d="M187.1,203.9c-12.5,0-22.7,10.2-22.7,22.7c0,12.5,10.2,22.7,22.7,22.7s22.7-10.2,22.7-22.7
			C209.8,214.1,199.6,203.9,187.1,203.9z M187.1,238.3c-6.4,0-11.7-5.2-11.7-11.7c0-6.4,5.2-11.7,11.7-11.7s11.7,5.2,11.7,11.7
			C198.8,233.1,193.5,238.3,187.1,238.3z"/>
		<g>
			<path class="st5" d="M136.9,226.7c0,6.4,5.2,11.7,11.7,11.7c1.3,0,2.4-0.2,3.4-0.6v-22.2c-1.1-0.3-2.3-0.5-3.4-0.5
				C142.1,215,136.9,220.2,136.9,226.7L136.9,226.7z"/>
			<path class="st6" d="M148.6,238.3c-6.4,0-11.7-5.2-11.7-11.7c0-6.4,5.2-11.7,11.7-11.7c1.2,0,2.3,0.2,3.4,0.5l3.5-6.6l-3.5-4.7
				c-1.1-0.2-2.3-0.3-3.4-0.3c-12.5,0-22.7,10.2-22.7,22.7c0,12.5,10.2,22.7,22.7,22.7c1.2,0,2.3-0.1,3.4-0.3l3.5-6.8l-3.5-4.6
				C151,238.1,149.8,238.3,148.6,238.3L148.6,238.3z"/>
			<path class="st7" d="M155.2,235.5c-0.3,0.3-0.5,0.6-0.8,0.9c-0.7,0.6-1.5,1.1-2.3,1.4v11.4c3.7-0.6,7-2.1,9.7-4.5
				c0.7-0.6,1.3-1.3,2-2L155.2,235.5z"/>
		</g>
		<path class="st7" d="M155.1,217l6.2-9.2c-2.8-1.9-6-3.1-9.3-3.6v11.3C153.1,215.9,154.1,216.4,155.1,217z"/>
	</g>
	<path class="st8" d="M280,328V72h96c8.8,0,16,7.2,16,16v224c0,8.8-7.2,16-16,16H280z"/>
	<g>
		<path class="st2" d="M152,136.1L135,124c-1.9-1.3-4.5-1-6,0.7l-7.3,8.4c-0.9,1-2.6,0.4-2.6-1V71.6H152V136.1z"/>
		<path class="st6" d="M152,136.1l17.9-12.2c1.9-1.3,4.5-0.9,6,0.9l6.4,8c0.9,1.1,2.6,0.5,2.6-0.9V71.6H152V136.1z"/>
	</g>
	<path class="st9" d="M464,288l-12.7,12.7L416,336h-9.4c-30.2,0-54.6-24.5-54.7-54.6c0,0,0-0.1,0-0.1l0-9.3l-16-16
		c-12.4-12.4-13.3-32.3-2-45.8c-11.7-7.1-17.3-20.9-14-34.2l112,16L464,288z"/>
	<path class="st10" d="M496,320l-32-32l-52.7,52.7c-6.2,6.2-6.2,16.4,0,22.6L496,448V320z"/>
	<path class="st11" d="M475.8,256.9c-2.1,8.5-10.5,13.8-19,12.2l-15.3-2.9l-24.8-4.7l-8.7-1.7l-24.9-4.7L304,240l-24-24l32-8
		l29.6,5.6l28,5.3l55,10.5l24.8,4.7l13.4,2.6c8.9,1.7,14.8,10.3,13.1,19.3C475.9,256.3,475.8,256.6,475.8,256.9L475.8,256.9z"/>
	<path class="st0" d="M449.5,234.2l-8,32l-24.8-4.7l8-32L449.5,234.2z"/>
	<path class="st12" d="M475.8,256.9c-2.1,8.5-10.5,13.8-19,12.2l-15.3-2.9l8-32l13.4,2.6c8.9,1.7,14.8,10.3,13.1,19.3
		C475.9,256.3,475.8,256.6,475.8,256.9L475.8,256.9z"/>
	<path class="st9" d="M440,312l-24,24h-9.4c-30.2,0-54.6-24.5-54.7-54.6c0,0,0-0.1,0-0.1l0-9.3l-16-16c-13.3-13.3-13.3-34.7,0-48
		l5.6,5.6L392,264v16c0,4.4,3.6,8,8,8s8-3.6,8-8L440,312z"/>
	<path class="st13" d="M305,239.5l-1,0.5l-24-24l32-8c6.9,9.7,4.7,23.2-5,30.2C306.3,238.6,305.7,239.1,305,239.5L305,239.5z"/>
	<circle cx="440" cy="352" r="8"/>
	<path class="st14" d="M471,283.7l-2.6-7.9c12.7-4.7,19.1-18.8,14.3-31.5c-3-8-9.9-13.9-18.3-15.5l-12.4-2.4l-12.3-37
		c-1-2.9-3.5-5-6.5-5.4l-112-16c-4.1-0.6-7.9,2-8.9,6c-2.2,8.8-1.3,18.2,2.7,26.4l-1.4-0.3c-1.1-0.2-2.3-0.2-3.4,0.1l-22.1,5.5V80
		h88c4.4,0,8,3.6,8,8v72h16V88c0-13.2-10.8-24-24-24H40c-13.2,0-24,10.8-24,24v224c0,13.2,10.8,24,24,24h272v-16H40
		c-4.4,0-8-3.6-8-8V88c0-4.4,3.6-8,8-8h73.6v64c0,4.4,3.6,8,8,8c2.1,0,4.2-0.8,5.7-2.3l10.3-10.3l10.3,10.3c3.1,3.1,8.2,3.1,11.3,0
		l10.3-10.3l10.3,10.3c3.1,3.1,8.2,3.1,11.3,0c1.5-1.5,2.3-3.5,2.3-5.7V80H272v136h0c0,2.1,0.8,4.2,2.3,5.7l24,24
		c1.1,1.1,2.6,1.9,4.2,2.2l20.5,3.9c2,3.6,4.4,7,7.4,9.9l13.7,13.7l0,5.9c-0.1,32.1,24.2,59.1,56.1,62.4c-3.2,8.8-1.1,18.7,5.5,25.3
		l44.7,44.7l11.3-11.3L417,357.7c-3.1-3.1-3.1-8.2,0-11.3l47-47l18.3,18.3l11.3-11.3L471,283.7z M177.6,124.7l-2.3-2.3
		c-3.1-3.1-8.2-3.1-11.3,0l-10.3,10.3l-10.3-10.3c-3.1-3.1-8.2-3.1-11.3,0l-2.3,2.3V80h48V124.7z M387,247.7l-21.3-21.3l15.1,2.9
		l16.3,3.1l0,0l17.8,3.4l-4.1,16.5L387,247.7z M430.6,238.7l9.1,1.7l-4.1,16.5l-9.1-1.7L430.6,238.7z M466.9,248.4
		c2.5,3.9,1.4,9.2-2.6,11.7c-1.4,0.9-2.9,1.3-4.5,1.3c-0.5,0-1.1,0-1.6-0.1l-6.9-1.3l4.1-16.5l6,1.1
		C463.7,245,465.7,246.4,466.9,248.4L466.9,248.4z M426,199.2l8,23.9l-55.6-10.6l-32.4-6.2c-0.1,0-0.2-0.1-0.3-0.1l-3.9-3.9
		c-2-2-4.8-2.8-7.5-2.1c-4.1-4-6.6-9.4-7-15.1L426,199.2z M307.9,232.6l-12.3-12.3l16.6-4.1l8.3,1.6c-1.6,4.6-2.5,9.4-2.5,14.2
		c0,0.9,0,1.7,0.1,2.6L307.9,232.6z M412.7,328h-6c-25.8,0-46.7-20.9-46.7-46.7c0,0,0,0,0-0.1l0-9.3c0-2.1-0.8-4.2-2.3-5.7l-16-16
		c-7.9-8-9.9-20.1-4.8-30.1l47.1,47.1V296h16v-29.6l51.7,9.8l3.2,9.6L412.7,328z"/>
</g>
</svg>
