<svg width="47" height="47" viewBox="0 0 47 47" fill="none" xmlns="http://www.w3.org/2000/svg">
<path d="M23.5 5.50781C18.1852 5.50781 13.8613 9.83172 13.8613 15.1465C13.8613 18.4459 15.5252 21.4818 18.3123 23.2675C21.1583 25.0908 24.6518 25.2846 27.8983 23.791C28.589 23.4732 28.8915 22.6555 28.5736 21.9646C28.2558 21.2738 27.4382 20.9714 26.7472 21.2892C24.3734 22.3814 21.8403 22.2572 19.7979 20.9487C17.805 19.6719 16.6152 17.5028 16.6152 15.1465C16.6152 11.3502 19.7037 8.26172 23.5 8.26172C27.2963 8.26172 30.3848 11.3502 30.3848 15.1465C30.3848 15.9057 29.7671 16.5234 29.0078 16.5234C28.314 16.5234 27.6659 15.9973 27.631 15.1674C27.631 15.1604 27.6309 15.1535 27.6309 15.1465C27.6309 12.8687 25.7778 11.0156 23.5 11.0156C21.2222 11.0156 19.3691 12.8687 19.3691 15.1465C19.3691 17.4242 21.2222 19.2773 23.5 19.2773C24.5571 19.2773 25.5224 18.8778 26.2538 18.2222C26.9852 18.8778 27.9506 19.2773 29.0078 19.2773C31.2856 19.2773 33.1387 17.4242 33.1387 15.1465C33.1387 9.83172 28.8148 5.50781 23.5 5.50781ZM24.8576 15.3673C24.7513 16.0218 24.1839 16.5234 23.5 16.5234C22.7407 16.5234 22.123 15.9057 22.123 15.1465C22.123 14.3872 22.7407 13.7695 23.5 13.7695C24.206 13.7695 24.7888 14.3038 24.8673 14.9891C24.8468 15.1142 24.8434 15.2415 24.8576 15.3673Z" fill="url(#paint0_linear)"/>
<path d="M44.1542 18.0818C44.1538 17.7257 44.0105 17.3698 43.7509 17.1103L38.6465 12.0058V1.37695C38.6465 0.616508 38.03 0 37.2695 0H9.73047C8.97002 0 8.35352 0.616508 8.35352 1.37695V12.0058L3.24906 17.1103C3.24429 17.1151 3.24025 17.1204 3.23556 17.1253C2.97752 17.3911 2.84635 17.7411 2.84579 18.0818C2.84579 18.0827 2.8457 18.0835 2.8457 18.0844V42.8691C2.8457 45.1498 4.70147 47 6.97656 47H40.0234C42.3036 47 44.1543 45.1451 44.1543 42.8691V18.0844C44.1543 18.0835 44.1542 18.0827 44.1542 18.0818ZM38.6465 15.9004L40.8301 18.084L38.6465 20.2676V15.9004ZM11.1074 12.5766C11.1074 12.5764 11.1074 12.576 11.1074 12.5757V2.75391H35.8926V12.5757C35.8926 12.576 35.8926 12.5764 35.8926 12.5766V23.0215L28.4375 30.4766H18.5625L11.1074 23.0215V12.5766ZM8.35352 15.9004V20.2676L6.16994 18.084L8.35352 15.9004ZM5.59961 42.2988V21.4082L16.0449 31.8535L5.59961 42.2988ZM7.54699 44.2461L18.5625 33.2305H28.4375L39.453 44.2461H7.54699ZM41.4004 42.2988L30.9551 31.8535L41.4004 21.4082V42.2988Z" fill="url(#paint1_linear)"/>
<defs>
<linearGradient id="paint0_linear" x1="10.4677" y1="5.50781" x2="11.8534" y2="31.5435" gradientUnits="userSpaceOnUse">
<stop stop-color="#F4CBA2"/>
<stop offset="0.197917" stop-color="#F5B790"/>
<stop offset="1" stop-color="#FA6747"/>
</linearGradient>
<linearGradient id="paint1_linear" x1="-4.42632" y1="-6.57146e-07" x2="-0.586563" y2="63.4166" gradientUnits="userSpaceOnUse">
<stop stop-color="#F4CBA2"/>
<stop offset="0.197917" stop-color="#F5B790"/>
<stop offset="1" stop-color="#FA6747"/>
</linearGradient>
</defs>
</svg>
