<svg width="47" height="36" viewBox="0 0 47 36" fill="none" xmlns="http://www.w3.org/2000/svg">
<path d="M40.9294 1.75009H6.0706C3.55806 1.75009 1.75 3.97846 1.75 6.42936V29.5707C1.75 32.0215 3.55804 34.25 6.0706 34.25H40.9294C43.4418 34.25 45.25 32.0216 45.25 29.5707V6.42936C45.25 3.97846 43.4419 1.75009 40.9294 1.75009Z" fill="#41479B" stroke="#AF6826" stroke-width="2.5"/>
<path d="M43.9575 5.86245C43.7155 4.23846 42.4523 3 40.9294 3H40.1305L27.0345 12.5824V3.00009H19.9655V12.5825L6.86953 3.00009H6.0706C4.54775 3.00009 3.28452 4.23846 3.04252 5.86254L14.2357 14.0527H3V21.9474H14.2357L3.04252 30.1375C3.28452 31.7615 4.54775 32.9999 6.0706 32.9999H6.86953L19.9655 23.4175V32.9999H27.0345V23.4175L40.1305 32.9999H40.9294C42.4523 32.9999 43.7155 31.7615 43.9575 30.1375L32.7643 21.9473H44V14.0526H32.7643L43.9575 5.86245Z" fill="#F5F5F5"/>
<path d="M25.6207 3.00009H21.3793V15.6316H3V20.3684H21.3793V32.9999H25.6207V20.3684H44V15.6316H25.6207V3.00009Z" fill="#FF4B55"/>
<path d="M4.98526 32.7788L19.9265 21.9474H17.3297L3.73853 31.8003C4.07109 32.2337 4.49847 32.5734 4.98526 32.7788Z" fill="#FF4B55"/>
<path d="M30.7381 21.9474H28.1414L42.6128 32.4382C43.0177 32.1412 43.3556 31.74 43.5967 31.2689L30.7381 21.9474Z" fill="#FF4B55"/>
<path d="M3.32397 4.89598L15.9547 14.0527H18.5515L4.23895 3.67676C3.85465 3.99621 3.54019 4.41386 3.32397 4.89598Z" fill="#FF4B55"/>
<path d="M29.6314 14.0527L43.2475 4.18159C42.9113 3.74954 42.4805 3.41185 41.9904 3.21036L27.0347 14.0527H29.6314Z" fill="#FF4B55"/>
</svg>
