<?xml version="1.0" encoding="utf-8"?>
<!-- Generator: Adobe Illustrator 24.3.0, SVG Export Plug-In . SVG Version: 6.00 Build 0)  -->
<svg version="1.1" id="Capa_1" xmlns="http://www.w3.org/2000/svg" xmlns:xlink="http://www.w3.org/1999/xlink" x="0px" y="0px"
	 viewBox="0 0 2668.9 2668.9" style="enable-background:new 0 0 2668.9 2668.9;" xml:space="preserve">
<g>
	<g>
		<path d="M1334.4,343.8c-292.6,0-530.7,238.1-530.7,530.7c0,181.7,91.6,348.8,245.1,447.1c156.7,100.4,349,111.1,527.8,28.8
			c38-17.5,54.7-62.5,37.2-100.6c-17.5-38-62.5-54.7-100.6-37.2c-130.7,60.1-270.2,53.3-382.6-18.7
			c-109.7-70.3-175.2-189.7-175.2-319.4c0-209,170-379,379-379s379,170,379,379c0,41.8-34,75.8-75.8,75.8c-38.2,0-73.9-29-75.8-74.7
			c0-0.4,0-0.8,0-1.2c0-125.4-102-227.4-227.4-227.4S1107,749.1,1107,874.5s102,227.4,227.4,227.4c58.2,0,111.3-22,151.6-58.1
			c40.3,36.1,93.4,58.1,151.6,58.1c125.4,0,227.4-102,227.4-227.4C1865.1,581.9,1627,343.8,1334.4,343.8z M1409.2,886.7
			c-5.9,36-37.1,63.6-74.7,63.6c-41.8,0-75.8-34-75.8-75.8s34-75.8,75.8-75.8c38.9,0,71,29.4,75.3,67.1
			C1408.6,872.7,1408.4,879.7,1409.2,886.7z"/>
	</g>
</g>
<g>
	<g>
		<path d="M2471.6,1036.1c0-19.6-7.9-39.2-22.2-53.5l-281-281V116.4c0-41.9-33.9-75.8-75.8-75.8H576.3c-41.9,0-75.8,33.9-75.8,75.8
			v585.2l-281,281c-0.3,0.3-0.5,0.6-0.7,0.8c-14.2,14.6-21.4,33.9-21.5,52.7c0,0.1,0,0.1,0,0.1v1364.6
			c0,125.6,102.2,227.4,227.4,227.4h1819.4c125.5,0,227.4-102.1,227.4-227.4V1036.3C2471.6,1036.2,2471.6,1036.2,2471.6,1036.1z
			 M2168.3,916l120.2,120.2l-120.2,120.2V916z M652.1,733C652.1,733,652.1,733,652.1,733V192.2h1364.6V733c0,0,0,0,0,0.1v575.1
			l-410.4,410.4h-543.7l-410.4-410.4V733z M500.5,916v240.4l-120.2-120.2L500.5,916z M348.9,2369.4V1219.3L924,1794.3L348.9,2369.4z
			 M456.1,2476.6l606.5-606.5h543.7l606.5,606.5H456.1z M2320,2369.4l-575.1-575.1l575.1-575.1V2369.4z"/>
	</g>
</g>
</svg>
