<svg width="26" height="27" viewBox="0 0 26 27" fill="none" xmlns="http://www.w3.org/2000/svg">
<path fill-rule="evenodd" clip-rule="evenodd" d="M13.3232 0.805176C9.87074 0.805176 7.07443 3.69851 7.07443 7.27073C7.07443 10.8429 9.87074 13.7363 13.3232 13.7363C16.7756 13.7363 19.5719 10.8429 19.5719 7.27073C19.5719 3.69851 16.7756 0.805176 13.3232 0.805176ZM16.4475 7.27075C16.4475 5.49272 15.0416 4.03798 13.3232 4.03798C11.6047 4.03798 10.1988 5.49272 10.1988 7.27075C10.1988 9.04878 11.6047 10.5035 13.3232 10.5035C15.0416 10.5035 16.4475 9.04878 16.4475 7.27075ZM22.6962 23.4346C22.3838 22.287 17.541 20.2018 13.3231 20.2018C9.12086 20.2018 4.30934 22.2708 3.95004 23.4346H22.6962ZM0.825684 23.4346C0.825684 19.135 9.15212 16.969 13.3232 16.969C17.4942 16.969 25.8206 19.135 25.8206 23.4346C25.8206 25.22 24.3733 26.6673 22.5878 26.6673H4.05846C2.27305 26.6673 0.825684 25.22 0.825684 23.4346Z" fill="black"/>
</svg>
