<svg width="20" height="20" viewBox="0 0 20 20" fill="none" xmlns="http://www.w3.org/2000/svg">
<circle cx="10" cy="10" r="9" fill="white" stroke="#C1C1C1" stroke-width="2"/>
<path d="M10.8203 11.1655C10.7243 11.1655 10.6403 11.2015 10.5683 11.2735C10.5083 11.3455 10.4783 11.4295 10.4783 11.5255V12.5155H8.37234V11.4895C8.37234 9.90555 9.11634 9.11355 10.6043 9.11355H10.6943C10.7903 9.11355 10.8683 9.07755 10.9283 9.00555C11.0003 8.93355 11.0363 8.84955 11.0363 8.75355V6.61155C11.0363 6.51555 11.0003 6.43155 10.9283 6.35955C10.8683 6.28755 10.7903 6.25155 10.6943 6.25155H9.32634C9.23034 6.25155 9.14634 6.28755 9.07434 6.35955C9.01434 6.43155 8.98434 6.51555 8.98434 6.61155V7.52955H6.75234V6.66555C6.75234 5.08155 7.49634 4.28955 8.98434 4.28955H10.9823C12.4703 4.28955 13.2143 5.08155 13.2143 6.66555V8.78955C13.2143 10.3735 12.4703 11.1655 10.9823 11.1655H10.8203ZM8.17434 14.8195C8.17434 14.4595 8.30034 14.1535 8.55234 13.9015C8.80434 13.6495 9.11034 13.5235 9.47034 13.5235C9.83034 13.5235 10.1363 13.6495 10.3883 13.9015C10.6403 14.1535 10.7663 14.4595 10.7663 14.8195C10.7663 15.1795 10.6403 15.4855 10.3883 15.7375C10.1363 15.9895 9.83034 16.1155 9.47034 16.1155C9.11034 16.1155 8.80434 15.9895 8.55234 15.7375C8.30034 15.4855 8.17434 15.1795 8.17434 14.8195Z" fill="#C1C1C1"/>
</svg>
