<svg id="Layer_1" data-name="Layer 1" xmlns="http://www.w3.org/2000/svg" viewBox="0 0 1821.4 1821.4"><defs><style>.cls-1{fill:#f5d9ab;}.cls-2{fill:#f0b582;}.cls-3{fill:#92a2b5;}.cls-4{fill:#667b93;}.cls-5{fill:#fff;}.cls-6{fill:#e2fc85;}.cls-7{fill:#8ae897;}.cls-8{fill:#7bdaa9;}</style></defs><path class="cls-1" d="M1152,1259.2l-107.2,107.2V1259.2H803.4L696.2,1366.4H615.8v321.7H1018l402.2-402.2v-26.8H1152Z"/><path class="cls-2" d="M991.1,1607.8H615.8v80.4H1018L1420.2,1286v-26.8h-80.4Z"/><path class="cls-3" d="M347.6,1741.9H615.7v-429H347.6"/><path class="cls-4" d="M347.6,1741.9H615.7v-80.4H347.6"/><path class="cls-5" d="M481.7,1529h53.6v50.3H481.7V1529Z"/><circle class="cls-6" cx="937.5" cy="615.8" r="321.7"/><path class="cls-7" d="M937.5,294a333.74,333.74,0,0,0-40.2,2.5c158.7,19.8,281.5,155.2,281.5,319.2S1056,915.2,897.3,935a333.74,333.74,0,0,0,40.2,2.5c177.7,0,321.7-144.1,321.7-321.7S1115.2,294,937.5,294Z"/><path class="cls-8" d="M924.7,481.9c-83,83-89.7,203.4-19.5,273.5s190.5,63.5,273.5-19.5c107.4-107.4,107.4-361.4,107.4-361.4S1032.1,374.4,924.7,481.9Z"/><path class="cls-5" d="M1125.2,483.4h53.6v50.3h-53.6Z"/><path class="cls-6" d="M950.3,481.9c83,83,89.7,203.4,19.5,273.5s-190.5,63.5-273.5-19.5C588.9,628.4,588.9,374.4,588.9,374.4S842.9,374.4,950.3,481.9Z"/><path class="cls-8" d="M950.3,481.9C842.9,374.4,588.9,374.4,588.9,374.4s0,11,1,29.5c80.7,6.4,230.6,28.6,306.8,104.8,83,83,89.7,203.3,19.5,273.5a174,174,0,0,1-16.6,14.5,161.81,161.81,0,0,0,70.3-41.3C1040,685.2,1033.3,564.9,950.3,481.9Z"/><path d="M1069.9,1305.8v-71.7H793L685.8,1341.3H640.9v-53.6H322.5V1767H640.9V1391.6h65.7l107.2-107.2h205.8v57H883.9v50.3h171.3l107.2-107.2h223.8l-378.7,378.7H696.2v50.3h332.2l416.9-416.9v-62.4H1141.6ZM590.6,1716.7H372.8V1338H590.6Z"/><path d="M428.1,1582.7h53.6V1633H428.1Z"/><path class="cls-5" d="M937.5,1177.1c128.7,0,251.1-43.2,350.2-122.6V1152H1338V966H1152v50.3h103.1a508.21,508.21,0,0,1-317.6,110.6c-281.8,0-511.1-229.3-511.1-511.1,0-111.6,35.3-217.7,102.2-306.6L488.4,279C415,376.8,376.2,493.2,376.2,615.8,376.1,925.3,628,1177.1,937.5,1177.1Z"/><path class="cls-5" d="M723,215.3H619.9A508.21,508.21,0,0,1,937.5,104.7c281.8,0,511.1,229.3,511.1,511.1,0,111.6-35.3,217.7-102.2,306.7l40.2,30.2c73.5-97.8,112.3-214.3,112.3-336.9,0-309.5-251.8-561.4-561.4-561.4C808.8,54.4,686.4,97.6,587.3,177V79.5H537v186H723Z"/><path class="cls-5" d="M1311.2,349.3h-25.1c-4.4,0-52.9.2-115.9,9.1a347,347,0,0,0-465.4,0c-62.9-8.9-111.3-9.1-115.9-9.1H563.8v25.1c0,6.7.5,107.8,28.2,210.6-.9,10.2-1.4,20.5-1.4,30.7,0,191.3,155.6,346.9,346.9,346.9S1284.4,807,1284.4,615.7c0-10.2-.5-20.5-1.4-30.7,27.7-102.8,28.2-203.9,28.2-210.6V349.3Zm-63.5,162C1231,606.4,1201,677.9,1160.8,718c-49.8,49.8-116.7,70.1-173.9,55.7l.6-.6c32-32,50.9-73.6,54.7-119.4l73.8-73.8-35.5-35.5-43,43c-9.4-41.5-30.4-81.1-61.2-114.7,87.3-56.4,226.4-69.3,283.7-72.3a914.63,914.63,0,0,1-12.3,110.9ZM937.5,319.1a294.75,294.75,0,0,1,166.6,51.3c-57.9,13-119.2,34-166.7,68-47.5-33.9-108.8-55-166.7-68A295.14,295.14,0,0,1,937.5,319.1ZM725.8,412.8c95.1,16.7,166.6,46.7,206.7,86.9,35.6,35.6,56.9,80.2,59.9,125.5,2.3,34.5-6.3,66.7-24.3,93L794.4,544.4l-35.5,35.5L932.7,753.7c-26.3,18-58.5,26.5-93,24.3-45.3-3-89.9-24.3-125.5-59.9-79.5-79.5-95.8-252-99.2-317.6a915.48,915.48,0,0,1,110.8,12.3ZM937.5,912.4c-117.2,0-218.7-68.3-266.8-167.2,2.6,2.9,5.2,5.7,8,8.4,44.2,44.2,100.2,70.7,157.7,74.5,4.9.3,9.7.5,14.5.5a196.71,196.71,0,0,0,86.8-19.7,195.62,195.62,0,0,0,86.5,19.6c60.5,0,123.4-25.9,172.3-74.9,2.7-2.7,5.4-5.6,8-8.4-48.3,98.9-149.8,167.2-267,167.2Z"/><path class="cls-5" d="M696.2,483.4h53.6v50.3H696.2Z"/></svg>