<?xml version="1.0" encoding="utf-8"?>
<!-- Generator: Adobe Illustrator 24.3.0, SVG Export Plug-In . SVG Version: 6.00 Build 0)  -->
<svg version="1.1" id="Layer_1" xmlns="http://www.w3.org/2000/svg" xmlns:xlink="http://www.w3.org/1999/xlink" x="0px" y="0px"
	 viewBox="0 0 1821.4 1821.4" style="enable-background:new 0 0 1821.4 1821.4;" xml:space="preserve">
<style type="text/css">
	.st0{fill:#F5D9AB;}
	.st1{fill:#F0B582;}
	.st2{fill:#92A2B5;}
	.st3{fill:#667B93;}
	.st4{fill:#FFFFFF;}
	.st5{fill:#E2FC85;}
	.st6{fill:#8AE897;}
	.st7{fill:#7BDAA9;}
</style>
<g>
	<g>
		<g>
			<path class="st0" d="M1152,1259.2l-107.2,107.2v-107.2H803.4l-107.2,107.2h-80.4v321.7h402.2l402.2-402.2v-26.8H1152z"/>
			<path class="st1" d="M991.1,1607.8H615.8v80.4h402.2l402.2-402.2v-26.8h-80.4L991.1,1607.8z"/>
			<path class="st2" d="M347.6,1741.9h268.1v-429H347.6"/>
			<path class="st3" d="M347.6,1741.9h268.1v-80.4H347.6"/>
		</g>
		<g>
			<path class="st4" d="M481.7,1529h53.6v50.3h-53.6V1529z"/>
		</g>
	</g>
	<g>
		<circle class="st5" cx="937.5" cy="615.8" r="321.7"/>
		<path class="st6" d="M937.5,294c-13.6,0-27,0.9-40.2,2.5c158.7,19.8,281.5,155.2,281.5,319.2S1056,915.2,897.3,935
			c13.2,1.6,26.6,2.5,40.2,2.5c177.7,0,321.7-144.1,321.7-321.7S1115.2,294,937.5,294z"/>
		<g>
			<path class="st7" d="M924.7,481.9c-83,83-89.7,203.4-19.5,273.5s190.5,63.5,273.5-19.5c107.4-107.4,107.4-361.4,107.4-361.4
				S1032.1,374.4,924.7,481.9z"/>
			<g>
				<path class="st4" d="M1125.2,483.4h53.6v50.3h-53.6V483.4z"/>
			</g>
			<path class="st5" d="M950.3,481.9c83,83,89.7,203.4,19.5,273.5s-190.5,63.5-273.5-19.5C588.9,628.4,588.9,374.4,588.9,374.4
				S842.9,374.4,950.3,481.9z"/>
			<path class="st7" d="M950.3,481.9C842.9,374.4,588.9,374.4,588.9,374.4s0,11,1,29.5c80.7,6.4,230.6,28.6,306.8,104.8
				c83,83,89.7,203.3,19.5,273.5c-5.3,5.3-10.8,10-16.6,14.5c26.2-7.5,50.3-21.3,70.3-41.3C1040,685.2,1033.3,564.9,950.3,481.9z"/>
			<g>
				<path d="M1069.9,1305.8v-71.7H793l-107.2,107.2h-44.9v-53.6H322.5V1767h318.4v-375.4h65.7l107.2-107.2h205.8v57H883.9v50.3
					h171.3l107.2-107.2h223.8l-378.7,378.7H696.2v50.3h332.2l416.9-416.9v-62.4h-303.7L1069.9,1305.8z M590.6,1716.7H372.8V1338
					h217.8V1716.7z"/>
				<path d="M428.1,1582.7h53.6v50.3h-53.6V1582.7z"/>
				<path d="M937.5,1177.1c128.7,0,251.1-43.2,350.2-122.6v97.5h50.3V966h-186v50.3h103.1c-90.1,71.6-201,110.6-317.6,110.6
					c-281.8,0-511.1-229.3-511.1-511.1c0-111.6,35.3-217.7,102.2-306.6l-40.2-30.2c-73.4,97.8-112.2,214.2-112.2,336.8
					C376.1,925.3,628,1177.1,937.5,1177.1z"/>
				<path d="M723,215.3H619.9c90.1-71.6,201-110.6,317.6-110.6c281.8,0,511.1,229.3,511.1,511.1c0,111.6-35.3,217.7-102.2,306.7
					l40.2,30.2c73.5-97.8,112.3-214.3,112.3-336.9c0-309.5-251.8-561.4-561.4-561.4c-128.7,0-251.1,43.2-350.2,122.6V79.5H537v186
					h186V215.3z"/>
				<path d="M1311.2,349.3h-25.1c-4.4,0-52.9,0.2-115.9,9.1c-63.9-57.8-146.2-89.6-232.7-89.6c-86.8,0-168.8,31.7-232.7,89.6
					c-62.9-8.9-111.3-9.1-115.9-9.1h-25.1v25.1c0,6.7,0.5,107.8,28.2,210.6c-0.9,10.2-1.4,20.5-1.4,30.7
					c0,191.3,155.6,346.9,346.9,346.9s346.9-155.6,346.9-346.9c0-10.2-0.5-20.5-1.4-30.7c27.7-102.8,28.2-203.9,28.2-210.6V349.3z
					 M1247.7,511.3c-16.7,95.1-46.7,166.6-86.9,206.7c-49.8,49.8-116.7,70.1-173.9,55.7c0.2-0.2,0.4-0.4,0.6-0.6
					c32-32,50.9-73.6,54.7-119.4l73.8-73.8l-35.5-35.5l-43,43c-9.4-41.5-30.4-81.1-61.2-114.7c87.3-56.4,226.4-69.3,283.7-72.3
					C1258.8,425.5,1255.6,466.2,1247.7,511.3L1247.7,511.3z M937.5,319.1c60.1,0,117.8,18,166.6,51.3c-57.9,13-119.2,34-166.7,68
					c-47.5-33.9-108.8-55-166.7-68C819.6,337.1,877.2,319.1,937.5,319.1z M725.8,412.8c95.1,16.7,166.6,46.7,206.7,86.9
					c35.6,35.6,56.9,80.2,59.9,125.5c2.3,34.5-6.3,66.7-24.3,93L794.4,544.4l-35.5,35.5l173.8,173.8c-26.3,18-58.5,26.5-93,24.3
					c-45.3-3-89.9-24.3-125.5-59.9c-79.5-79.5-95.8-252-99.2-317.6C640,401.7,680.7,404.9,725.8,412.8L725.8,412.8z M937.5,912.4
					c-117.2,0-218.7-68.3-266.8-167.2c2.6,2.9,5.2,5.7,8,8.4c44.2,44.2,100.2,70.7,157.7,74.5c4.9,0.3,9.7,0.5,14.5,0.5
					c31,0,60.4-6.8,86.8-19.7c26.9,13.2,56.4,19.6,86.5,19.6c60.5,0,123.4-25.9,172.3-74.9c2.7-2.7,5.4-5.6,8-8.4
					C1156.2,844.1,1054.7,912.4,937.5,912.4L937.5,912.4z"/>
			</g>
			<g>
				<path class="st4" d="M696.2,483.4h53.6v50.3h-53.6V483.4z"/>
			</g>
		</g>
	</g>
</g>
</svg>
